<svg version="1.1" id="Layer_1" xmlns="http://www.w3.org/2000/svg" x="0" y="0" viewBox="0 0 232.387 110.315" xml:space="preserve"><style>.st0{fill:#231f20}.st1{fill:#fff}.st2{fill:#ad5f12}.st3{fill:#ff4e00}</style><path class="st0" d="M58.5 78.478c-.318.282-1.41.176-1.199.81v-.035h.035-.035v.035-.035.035c0-.035 0-.035.035-.035-.035 0-.035 0-.035.035-.106.353-.106.776-.352 1.128 0 1.163.035 2.362-.036 3.524a63.66 63.66 0 00-.105 5.181c.14 1.198-.106 2.361 0 3.594.07 1.198.105 2.432 0 3.63-.036.987.317 1.939.352 2.926-.105.633.211 1.197.282 1.796.141.317.705.141.951.388.07.141-.176.106-.281.141-.036 0-.106 0-.106.07-.035.07-.176.036-.247.07-.176-.034-.176.212-.352.177-.529.035-1.093-.176-1.586 0-.282-.211-.846-.07-1.234-.106-.352.036-.81.247-1.022-.105 1.41-.987 1.022-1.128 1.093-2.678-.035-.529-.035-1.057.07-1.586-.211-1.022 0-2.08-.105-3.137-.106-1.34-.07-2.713-.176-4.088-.036-.21-.318-.14-.494-.176-1.057.07-2.114-.07-3.172 0-.246.846-.106 1.939-.211 2.855-.423 1.48-.106 2.96-.035 4.476.07.704-.176 1.409-.07 2.079.14.81.422 1.902 1.374 2.079.81.176.14.528-.353.423-1.093.034-2.255-.142-3.313.246-.74.353-1.62.176-.634-.564.247-.105.282-.423.494-.6.317-.386.105-.95.105-1.408-.07-1.41-.07-2.784 0-4.194-.105-5.18-.211-10.537.212-15.682-.177-.529-.6-.917-.987-1.34-.247-.07-.634-.034-.846-.21 0-.177-.14-.495.106-.53.14.035.282.141.458.035a.304.304 0 01.247 0c.176.036.387.177.529.106.493-.14 1.021.036 1.515-.035.352.035.634-.14.951-.247.318-.035.635 0 .917-.14.599-.177-.282.458-.423.564-.141.21.423.07 0 .563.211.036.387-.07.599-.07-.106.176-.353.176-.458.387-.07.106-.353.212-.212.388.141.564-.211 1.234-.105 1.868.035.105-.106.493.07.493.035-.211.035-.388.07-.599.317 2.643-.07 5.392 0 8.035.106.212.459.14.635.212.458.211 1.057 0 1.48.281.353-.21 1.304.142 1.48-.246-.035-1.339 0-2.678-.035-4.018.035-1.585.176-3.171.212-4.757.14-1.163-.847-2.114-1.974-2.15-.07-.106-.353-.282-.177-.387.247-.177.423-.353.74-.142 1.305-.317 2.679.493 4.018.212.07-.035.282-.141.282 0-.176.493.916.035 1.057.458zm-8.987.388c-.036-.036-.036-.036-.071 0 0 0 0 .035.035.035l.036-.035zm.529.246c0-.035-.071-.035-.142 0-.317.247-.352.282-.246.635a.577.577 0 00.388-.635zm.21 21.567h-.034.035zm.389.318c.07-.07-.036-.176-.106-.212-.036.036.035.212.106.212zm.352-14.978c0 .106.07.318-.035.248-.036-.071.035-.106.035-.248zm.035-8.88c0 .035 0 .035.035.035l-.035-.035zm.388 1.304h.035-.035zm0 0h.035-.035zm.035 0c.035 0 .07-.036.106 0-.035.035-.07.035-.106 0zM55.645 86.372s0 .035.035.035c0-.035 0-.035-.035-.035zm.035 14.555v-.036l-.035.036c0 .034.035.034.035 0zm.6-21.85c.034-.035.034-.105 0-.07-.072 0-.036.07 0 .07zm.21 20.687c-.387-.106-.07 1.021-.034 1.268.034.176.28.106.422.141.106-.035.035-.176-.035-.212-.282-.282-.106-.845-.353-1.197zm.6-20.792c-.035-.036-.035-.036-.071-.036-.247 0-.247.036-.317.247-.141.528.317.105.387-.141v-.07zM67.555 99.447c-1.234.986-2.15 2.29-3.102 3.523-.282.423-.246 1.128-.704 1.375-.459.035.035-1.128.105-1.375.282-1.163.282-2.396.211-3.559-.246-.07-.845.987-1.268 1.128-2.538 1.515-3.454-.987-3.171-3.137 0-1.162.07-2.396.528-3.489.317-.563.528-1.832 1.34-1.761.492-.635 1.233-.987 1.938-1.27.176-.034.21.988.034.988-.669.422-1.162.916-1.48 1.656-.246.705-.67 1.515-.387 2.256.317.845.106 2.36 1.092 2.748.67-.14.987-.81 1.41-1.268.282-.74.07-1.657.176-2.467-.07-1.762.106-3.56-.14-5.321-.142-1.058.07-2.115 0-3.173.105-.775.14-1.585-.283-2.29-.88-1.586-1.656 1.339-1.656 2.08a2.716 2.716 0 000 1.303c-.036.141.317.458.035.493l-.035-.035a.733.733 0 010 .388c.211-.106.423-.176.635-.176a29.013 29.013 0 00-3.42 2.819c-.07-.211.318-.458.283-.705l-.141.035c1.304-2.29-.106-5.04 1.974-6.977.21-.212.563-.529.88-.318.071.036.212.07.282 0 1.198-.423 2.502.247 2.96 1.41 1.128 2.855.459 5.956.6 8.951.07 1.163-.317 2.326-.141 3.49.282 1.162.529 2.607 2.079 2.22.211.105-.564.422-.634.458zM77.914 96.803c-.211 1.586-.669 3.067-1.55 4.37-.212.317-.6.211-.917.282-.563.141-1.022.247-1.585.106-.353.035-1.058-.634-1.023-.106.177 2.256-.422 4.828.635 6.837.035.14-.036.247 0 .352.035.07.212.106.106.177-.705.246-1.48.281-2.15.563-.282.176-.634.247-.951.353-.494.14-.987.67-1.552.564-.14-.176.142-.318.212-.458.106-.106.07-.283.14-.388 1.27-2.01 1.129-4.405 1.2-6.66.105-3.595.035-7.26.21-10.855-.14-1.445.141-2.995-.246-4.405-.282-.705-.845-1.268-1.586-1.48 1.374-1.269 3.101-2.291 4.44-3.7.036.281-.493 2.854.071 2.572 6.027-3.665 5.075 8.74 4.546 11.876zm-6.202-12.475c-.035.176.282.07.282-.07.14-.318-.212-.07-.282.07zm.951 24.245c-.07-.105-.14.106 0 .036v-.036zm3.419-17.443c-.036-.036-.07-.036-.07-.106-.036-.035-.036-.07 0-.106.034-.14-.106-.352.07-.458 0 .106-.036.246.07.282.036-1.727 0-4.018-1.374-5.322-.564-.352-1.692.705-1.727 1.27-.212 2.818-.035 5.638-.106 8.457.07 1.516-.563 3.207.212 4.546.529.705 1.022 1.41 1.938.775.106-.106 0-.282.106-.352.14-.176.035-.493.246-.599 1.058-2.432.353-5.216.67-7.753h-.035c.246.141.21-.6 0-.634zM88.416 96.803c-.212 1.586-.67 3.067-1.55 4.37-.213.317-.6.211-.917.282-.564.141-1.022.247-1.586.106-.352.035-1.057-.634-1.022-.106.176 2.256-.423 4.828.634 6.837.036.14-.035.247 0 .352.036.07.212.106.106.177-.705.246-1.48.281-2.15.563-.282.176-.634.247-.951.353-.494.14-.987.67-1.551.564-.14-.176.141-.318.212-.458.105-.106.07-.283.14-.388 1.27-2.01 1.128-4.405 1.199-6.66.105-3.595.035-7.26.211-10.855-.14-1.445.14-2.995-.247-4.405-.282-.705-.845-1.268-1.586-1.48 1.375-1.269 3.101-2.291 4.441-3.7.035.281-.493 2.854.07 2.572 6.027-3.665 5.075 8.74 4.547 11.876zm-6.203-12.475c-.035.176.282.07.282-.07.14-.318-.212-.07-.282.07zm.951 24.245c-.07-.105-.14.106 0 .036v-.036zm3.42-17.443c-.036-.036-.071-.036-.071-.106-.036-.035-.036-.07 0-.106.035-.14-.106-.352.07-.458 0 .106-.035.246.07.282.036-1.727 0-4.018-1.374-5.322-.564-.352-1.692.705-1.727 1.27-.211 2.818-.035 5.638-.106 8.457.07 1.516-.563 3.207.212 4.546.529.705 1.022 1.41 1.938.775.106-.106 0-.282.106-.352.14-.176.035-.493.247-.599 1.057-2.432.352-5.216.67-7.753h-.036c.247.141.211-.6 0-.634z"/><path class="st0" d="M98.634 84.293c-1.092 1.868-1.304 4.123-1.832 6.202-.846 3.56-1.304 7.225-2.114 10.819-.67 2.432-.459 5.462-2.186 7.436-1.092.74-2.431-.353-2.643-1.48-.211-.81-.986-.458-1.55-.705-.141-.07.105-.141.07-.247.282-.458 1.022-.634 1.41-1.092.951-.775 1.62-1.868 2.643-2.573.07-.035.105 0 .14.07 0 1.199-1.197 2.89.213 3.736.457-1.656.916-3.348 1.232-5.004-.563-2.713-1.55-5.391-2.008-8.175-.458-2.291-1.163-4.653-1.022-7.013-.211-.565-.458-1.128-.916-1.516-.282-.317-.74-.529-.811-.987 1.692-.07 3.348-.528 4.899-1.198a.304.304 0 01.246 0c-1.233 3.136-.246 6.59.494 9.762.282.6 0 1.515.422 1.938.6-2.784 1.27-5.603 1.903-8.387.036-.07.036-.177-.07-.177-.705-.105-.599-1.021-1.092-1.374-.07-.035-.142-.458-.036-.423.776-.141 1.55-.388 2.326-.564.071.176-.634.141-.176.6.176-.142.282-.388.564-.353.423 0 0 .493-.106.705zm-9.162 21.814c-.106 0-.247.176-.07.211.105 0 .21.106.28.036.036-.106-.104-.247-.21-.247zm2.361-2.572a.9.9 0 01-.388.422c-.106.141.106.141.212.177.07-.071.317-.635.176-.6zM93.56 83.2c-.036 0-.07-.035-.07-.035-.53.07-.248.529-.318.881.246-.211.282-.564.388-.846zm3.63.74c-.106 0-.388.036-.353.212.035.035.176.14.247.106.07-.106.211-.212.106-.318zM118.755 78.478c-.317.282-1.41.176-1.198.81v-.035h.035-.035v.035-.035.035c0-.035 0-.035.035-.035-.035 0-.035 0-.035.035-.106.353-.106.776-.353 1.128 0 1.163.036 2.362-.035 3.524-.105 1.728-.14 3.454-.105 5.181.14 1.198-.106 2.361 0 3.594.07 1.198.105 2.432 0 3.63-.036.987.317 1.939.352 2.926-.106.633.211 1.197.282 1.796.141.317.705.141.951.388.07.141-.176.106-.281.141-.036 0-.106 0-.106.07-.036.07-.176.036-.247.07-.176-.034-.176.212-.352.177-.529.035-1.093-.176-1.586 0-.282-.211-.846-.07-1.234-.106-.352.036-.81.247-1.022-.105 1.41-.987 1.022-1.128 1.093-2.678-.035-.529-.035-1.057.07-1.586-.211-1.022 0-2.08-.105-3.137-.106-1.34-.07-2.713-.177-4.088-.035-.21-.317-.14-.493-.176-1.057.07-2.114-.07-3.172 0-.246.846-.106 1.939-.212 2.855-.422 1.48-.105 2.96-.034 4.476.07.704-.177 1.409-.07 2.079.14.81.422 1.902 1.374 2.079.81.176.14.528-.353.423-1.092.034-2.255-.142-3.313.246-.74.353-1.62.176-.634-.564.247-.105.282-.423.494-.6.317-.386.105-.95.105-1.408a41.304 41.304 0 010-4.194c-.105-5.18-.211-10.537.212-15.682-.177-.529-.6-.917-.987-1.34-.247-.07-.634-.034-.846-.21 0-.177-.14-.495.106-.53.14.035.282.141.458.035a.304.304 0 01.247 0c.176.036.387.177.528.106.494-.14 1.022.036 1.515-.035.353.035.635-.14.952-.247.318-.035.634 0 .917-.14.599-.177-.283.458-.423.564-.142.21.423.07 0 .563.21.036.387-.07.599-.07-.106.176-.353.176-.459.387-.07.106-.352.212-.211.388.141.564-.211 1.234-.105 1.868.034.105-.106.493.07.493.035-.211.035-.388.07-.599.317 2.643-.07 5.392 0 8.035.106.212.459.14.635.212.457.211 1.057 0 1.48.281.352-.21 1.304.142 1.48-.246-.035-1.339 0-2.678-.035-4.018.035-1.585.176-3.171.211-4.757.141-1.163-.846-2.114-1.974-2.15-.07-.106-.352-.282-.176-.387.247-.177.423-.353.74-.142 1.305-.317 2.679.493 4.018.212.07-.035.282-.141.282 0-.177.493.916.035 1.057.458zm-8.986.388c-.036-.036-.036-.036-.071 0 0 0 0 .035.035.035l.036-.035zm.528.246c0-.035-.07-.035-.14 0-.318.247-.353.282-.248.635a.577.577 0 00.388-.635zm.212 21.567h-.035.035zm.387.318c.07-.07-.035-.176-.105-.212-.036.036.034.212.105.212zm.353-14.978c0 .106.07.318-.036.248-.035-.071.036-.106.036-.248zm.035-8.88c0 .035 0 .035.035.035l-.035-.035zm.388 1.304h.035-.035zm0 0h.035-.035zm.035 0c.035 0 .07-.036.105 0-.035.035-.07.035-.105 0zM115.9 86.372s0 .035.035.035c0-.035 0-.035-.035-.035zm.035 14.555v-.036l-.035.036c0 .034.035.034.035 0zm.6-21.85c.034-.035.034-.105 0-.07-.072 0-.036.07 0 .07zm.21 20.687c-.387-.106-.07 1.021-.035 1.268.035.176.282.106.423.141.106-.035.035-.176-.035-.212-.282-.282-.106-.845-.353-1.197zm.6-20.792c-.036-.036-.036-.036-.071-.036-.247 0-.247.036-.317.247-.141.528.317.105.387-.141v-.07zM127.81 99.447c-1.233.986-2.15 2.29-3.1 3.523-.283.423-.247 1.128-.706 1.375-.458.035.036-1.128.106-1.375.282-1.163.282-2.396.211-3.559-.246-.07-.845.987-1.268 1.128-2.538 1.515-3.454-.987-3.172-3.137 0-1.162.07-2.396.528-3.489.318-.563.53-1.832 1.34-1.761.493-.635 1.234-.987 1.938-1.27.177-.034.211.988.035.988-.67.422-1.162.916-1.48 1.656-.247.705-.67 1.515-.387 2.256.317.845.106 2.36 1.092 2.748.67-.14.987-.81 1.41-1.268.282-.74.07-1.657.176-2.467-.07-1.762.106-3.56-.141-5.321-.141-1.058.07-2.115 0-3.173.106-.775.141-1.585-.282-2.29-.88-1.586-1.656 1.339-1.656 2.08a2.716 2.716 0 000 1.303c-.036.141.317.458.035.493l-.035-.035a.733.733 0 010 .388c.21-.106.423-.176.634-.176a29.013 29.013 0 00-3.418 2.819c-.07-.211.317-.458.282-.705l-.142.035c1.304-2.29-.105-5.04 1.974-6.977.211-.212.564-.529.88-.318.072.036.213.07.283 0 1.198-.423 2.502.247 2.96 1.41 1.128 2.855.459 5.956.6 8.951.07 1.163-.318 2.326-.141 3.49.281 1.162.528 2.607 2.079 2.22.211.105-.564.422-.635.458zM134.328 100.433c0 .106-.14.141-.247.141-1.444.317-2.89.705-4.228 1.375-1.093.352.457-2.185.493-2.644.423-1.338.388-2.748.458-4.123.353-1.832.211-3.841.176-5.708.07-1.798-.105-3.384.07-5.252 0-1.304.107-2.643.071-3.947a1.915 1.915 0 00-.423-1.445 1.754 1.754 0 00-1.374-.634c-.106 0-.176.035-.282.035.07-.176.246-.211.388-.352.07-.177.14-.388.387-.388.529-.141.952-.67 1.445-.951.846-.74 1.762-1.34 2.679-1.939.105-.07.105-.07.281-.07.036 0 .071-.07.106 0-.74 3.876-.106 7.788-.14 11.7.21 4.617-.6 9.268.14 13.814.036.141-.14.283 0 .388zm-3.594-22.871c-.071.106.176.176.176.035.035-.176-.106-.176-.176-.035zm.775 23.083c0-.141-.247-.07-.352-.07-.247.316.176.21.352.07zM140.918 100.433c0 .106-.141.141-.247.141-1.445.317-2.89.705-4.229 1.375-1.093.352.458-2.185.493-2.644.423-1.338.388-2.748.459-4.123.352-1.832.21-3.841.176-5.708.07-1.798-.106-3.384.07-5.252 0-1.304.106-2.643.07-3.947a1.915 1.915 0 00-.422-1.445 1.754 1.754 0 00-1.375-.634c-.105 0-.176.035-.282.035.07-.176.247-.211.388-.352.07-.177.141-.388.388-.388.528-.141.951-.67 1.444-.951.847-.74 1.763-1.34 2.68-1.939.104-.07.104-.07.28-.07.036 0 .072-.07.107 0-.74 3.876-.106 7.788-.141 11.7.21 4.617-.6 9.268.14 13.814.036.141-.14.283 0 .388zm-3.595-22.871c-.07.106.177.176.177.035.034-.176-.106-.176-.177-.035zm.776 23.083c0-.141-.248-.07-.353-.07-.246.316.176.21.353.07zM150.326 98.001c-.318.811-.6 1.727-1.27 2.361-1.902 1.798-4.757.106-5.532-2.043-.317-.529-.282-1.234-.317-1.833-.07-.669-.141-1.339-.141-2.008-.035-2.397-.388-8.529 2.044-9.797.387-.07.282.07.564-.283.775-.951 2.502-1.198 3.383-.282.106.177.352-.07.423.142a30.25 30.25 0 011.656 9.198c0 1.55-.14 3.171-.81 4.545zm-1.375-5.215c0-.07.106-.106.106-.211-.211-1.516-.211-3.031-.529-4.511-.07-.67-.035-1.34-.21-2.01a.5.5 0 01.07-.21c.176-.282-.177-.67-.247-.987-.705-.846-1.833-.776-2.045.387-1.162 4.476-.422 9.34-.493 13.815.459.493 1.516 1.691 2.185 1.198.353-.282.353-.846.564-1.233-.105-.81.318-1.692.212-2.538-.07-.422.211-.74.211-1.163.07-.317-.07-.67.035-.986.036.035.106.105.106.035.035-.247.106-.564.035-.81-.07-.212-.035-.53 0-.776zM164.21 85.174c-.493 2.325-1.093 4.616-1.48 6.978-.353 2.114-.67 4.264-1.128 6.378-.423 1.058 1.128 1.938.599 2.044-.846-.035-1.762.423-2.361.987-.247.246-.353.317-.494-.035 0-.177.141-.318.141-.494.6-1.727.247-3.524-.035-5.286-.246-1.62-.494-3.242-.81-4.863-.6 1.55-.67 3.348-1.234 4.934-.176.916-.493 1.868-.529 2.783.282.565.564 1.48 1.304 1.551.318-.07.176.211 0 .282-.387.176-.845.035-1.233.246-.776.212-1.445.705-2.185.952-.176-.035.07-.211 0-.317 0-.07.035-.176.07-.247 1.163-1.585-.14-6.872-.458-8.915-.634-2.502-.246-5.639-2.361-7.436-.211-.141-.282-.423-.423-.635l.212-.14c1.444.528 2.925-.564 4.299-.847-.67.67-1.656.705-2.502 1.093-.14.07-.036.247.035.353.106.14.317-.142.494-.106.352-.07.14.282.458.246.035-.105.035-.211-.07-.246-.248-.458.669-.74.951-.353.458-.317.74-.775 1.198-1.057-.212 1.092-.705 2.432-.494 3.665.106 2.467.388 4.899.811 7.33.036.036.036.036.07.036h.036c.211-.776.387-1.55.563-2.291.776-2.29 1.375-5.392-.493-7.295-.317-.176.282-.317.423-.247.564-.106 1.057-.352 1.586-.529.74-.21 1.41-.669 2.115-.845-.705.951-.564 1.903-.494 3.066.036 1.339-.035 2.678.176 4.017.07.212.67 4.723.846 3.63.247-1.973.775-3.911 1.199-5.85.035-.81.634-1.692.387-2.467-.6-.916-.81-.88-1.833-.634.07-.106.212-.141.106-.317.916-.353 1.903-.88 2.82-1.128-.318.317-.775.705-1.199.81-.035.07-.035.106-.035.141-.035.036-.07.036-.106.071.036 0 .07-.035.106-.035 0-.07 0-.106.035-.14l-.035.14c0-.07 0-.106.035-.176.036.035.106.07.176.035.177-.07.282.105.388.211.247-.07.247-.529.493-.563.142 0 .177-.212.283-.177.246.6-.388 1.128-.423 1.692zm-8.564 15.576c-.07 0-.106.07-.141.141v-.035.035c.106.07.317-.14.141-.14zm7.647-16.774c.036.035.106 0 .142 0-.07 0-.106.035-.142 0zm0 0v.035-.035zM173.266 91.764a4.578 4.578 0 00-.811-2.01c-.14-.07-.035.319-.07.389-.212.634.176 1.128.246 1.727-1.128.14-2.29.106-3.383.458-.599.317-.564 0-.529-.529.705-.458 1.622-.564 2.432-.599.317-.07.212-.528.247-.74.07-1.586.035-3.137-.353-4.687-.176-.916-.775-1.868-1.833-1.868-.845.176-.775 1.41-.986 2.08-.212.422-.352 6.766.035 4.052.176-1.022.071.493 0 .775-.105 2.185.035 4.44.564 6.556.247.81.775 1.409 1.657 1.726.704.07 1.162-.705 1.586-1.163.387-.317.352-.986.775-1.234 1.374-.316-.635 2.75-.952 3.067-1.163 1.938-3.454 1.374-4.687-.141-.705-.67-.775-1.727-1.057-2.608a9.59 9.59 0 01-.423-2.82c-.035-.633.035-1.233 0-1.867.07-1.374.035-2.75.211-4.124.212-1.198.142-2.537.917-3.559a.23.23 0 01.317-.07c.67-.317.176-.846 1.55-1.198.74-.388 1.586.035 2.326.246 2.644 1.163 1.551 5.18 2.503 7.471.105.53.74 1.234-.282.67zm-4.018 8.352c.07.035.07.07.14 0h-.14zm.352.176h.036c-.036-.07-.106 0-.036 0zm2.362-9.162c.035.035.035.07.07.07 0-.035 0-.106-.07-.07zM183.026 91.764a4.579 4.579 0 00-.81-2.01c-.142-.07-.036.319-.071.389-.212.634.176 1.128.246 1.727-1.127.14-2.29.106-3.383.458-.599.317-.563 0-.528-.529.704-.458 1.621-.564 2.431-.599.317-.07.212-.528.247-.74.07-1.586.035-3.137-.353-4.687-.176-.916-.775-1.868-1.832-1.868-.846.176-.776 1.41-.987 2.08-.211.422-.352 6.766.035 4.052.176-1.022.071.493 0 .775-.105 2.185.036 4.44.564 6.556.247.81.776 1.409 1.657 1.726.705.07 1.162-.705 1.586-1.163.387-.317.352-.986.775-1.234 1.374-.316-.634 2.75-.951 3.067-1.164 1.938-3.455 1.374-4.688-.141-.704-.67-.775-1.727-1.057-2.608a9.59 9.59 0 01-.423-2.82c-.035-.633.035-1.233 0-1.867.07-1.374.035-2.75.211-4.124.212-1.198.142-2.537.917-3.559a.23.23 0 01.317-.07c.67-.317.176-.846 1.55-1.198.74-.388 1.587.035 2.326.246 2.644 1.163 1.552 5.18 2.503 7.471.105.53.74 1.234-.282.67zm-4.018 8.352c.07.035.07.07.14 0h-.14zm.353.176h.035c-.035-.07-.106 0-.035 0zm2.361-9.162c.035.035.035.07.07.07 0-.035 0-.106-.07-.07zM194.161 100.715c-1.022-.106-2.08.14-3.03.599-.634.317-1.199.705-1.762 1.128 0 .035-.071 0-.071-.035 1.515-3.841 1.621-8.141 1.48-12.264.035-1.269-.423-2.89.141-3.982.141.07.211.282.388.246a.107.107 0 01.141 0c.176.106.352.353.387 0 .106.106.106.317.212.423.176.106.247.036.247-.14.07-.107.106.176.176.246.246 0 .07-1.55-.318-1.304-.352-.352-.352-1.234-.81-1.374-.07.246.176.458.247.705-.106.07-.141-.106-.247-.142 0-.035-.035 0-.07.036-.036.07-.142-.106-.212-.141-.106-.106-.176.105-.282.07-.035.035-.07.141 0 .141.106 0 .247.14.176.212a.401.401 0 00-.282.105c-.105-.035-.175-.035-.211.071-1.022-.564-1.374 1.62-1.868 2.22-.211 3.277.07 6.66-.035 9.973-.212 1.022.529 2.643-.74 3.101-.211.07-.141-.211-.211-.317-.036-.07-.07-.035-.106 0-.106.176-.317.247-.423.423 1.022-.07 2.29.106.387.388-.845.105-1.55.67-2.396.74-.07 0-.106-.07-.07-.141.387-.881.669-1.762.88-2.714.494-2.15.318-4.37.212-6.554-.247-1.762.282-5.146-1.163-6.309-.211-.106-.282-.317-.388-.529.177-.14.177-.493.459-.493.916-.423 1.69-1.198 2.537-1.726.176-.247.493-.353.634-.6.106-.07.388-.599.388-.211.106.317-.176 2.326.106 2.114 6.519-5.709 3.63 10.29 4.158 13.18.035 1.093.6 2.22 1.34 2.855zm-2.572-15.718v-.034.034z"/><g><path class="st0" d="M209.866 87.776l.396 3.14 2.81 1.454-2.863 1.347-.514 3.123-2.167-2.308-3.129.476 1.526-2.773-1.42-2.829 3.109.594z"/></g><g><path class="st0" d="M.27 88.986l2.393.565L4.486 87.9l.203 2.452 2.134 1.223-2.269.95-.504 2.408-1.604-1.865L0 93.334l1.277-2.103z"/></g><g><path class="st1" d="M35.69 3.127l-2.509.854L31.055 2.4l.038 2.65-2.162 1.534 2.532.783.79 2.53L33.78 7.73l2.65.03-1.588-2.122z"/><path class="st0" d="M36.785 2.03l-3.484 1.186-2.952-2.197.052 3.68L27.4 6.827l3.515 1.087 1.097 3.512 2.121-3.007 3.68.042-2.205-2.946 1.177-3.487zm-.354 5.73l-2.65-.03-1.528 2.166-.79-2.53-2.532-.783 2.162-1.534-.038-2.65 2.126 1.582 2.51-.854-.849 2.511 1.589 2.122z"/></g><path class="st1" d="M171.303 9.877l-1.74 1.313-2.068-.69.711 2.06-1.295 1.754 2.179-.04 1.268 1.774.636-2.084 2.078-.658-1.786-1.25z"/><path class="st0" d="M171.876 8.739l-2.416 1.821-2.87-.957.986 2.861-1.798 2.434 3.026-.054 1.76 2.462.883-2.894 2.885-.912-2.48-1.736.024-3.025zm1.196 4.567l-2.078.658-.636 2.084-1.268-1.773-2.179.039 1.295-1.753-.71-2.06 2.067.689 1.74-1.313-.017 2.18 1.786 1.25zM59.967 11.472h2.82l-.185 1.679-1.13.89-2.263-1.285z"/><g><path class="st0" d="M28.705 83.012s.378-4.048-4.482-4.723-4.583 7.152-6.543 6.477-5.13-4.858-6.446-2.564 5.437 4.048 6.446 11.335 14.473 11.605 19.48 4.858 8.108-3.846 8.108-3.846-2.236-7.759-7.12-3.576-9.51.54-5.916-3.508c3.594-4.048 3.153-8.366 0-4.993s-3.872 5.263-3.527.54z"/><path class="st1" d="M22.132 90.114c0 2.546.774 2.617 1.73 2.617.954 0 1.728-.07 1.728-2.617 0-2.546-.774-4.61-1.729-4.61-.955 0-1.729 2.064-1.729 4.61zM27.07 83.348s-1.433-.675-1.784-2.137c0 0-.879 2.475.231 3.262 1.11.787 1.552-1.125 1.552-1.125zM20.865 83.23s1.555-.637 1.937-2.019c0 0 .954 2.338-.251 3.082-1.205.744-1.686-1.063-1.686-1.063z"/></g><path class="st1" d="M162.18 33.498c-.516 1.03.22 2.354.146 3.457.147.882-.074 1.912.294 2.647.442-1.03.588-5.81-.44-6.104z"/><g><path class="st0" d="M164.336 26.953c-.736-2.5-2.133-4.633-3.75-6.618-1.177-.442-2.502-1.398-3.899-1.398h-2.744c-.736.148-.589.883.147.81 3.162.66 3.75 4.265 4.044 7.06 0 .514.221 1.102-.073 1.617-.294.662.073 1.47.073 2.206 1.03 9.634 1.692 19.415.074 29.122-.061 1.76-1.624 6.413-3.49 7.95-1.622-.918-3.918-4.215-2.737-5.744-1.177-8.604-2.28-17.355-1.25-26.106.441-3.604 1.176-7.208 2.28-10.664.073-.735 1.47-3.015.44-3.088l-.665.004c-.008 0-.013-.004-.02-.004-.011 0-.019.004-.03.005l-.617.004c.355-.482.668-.969.818-1.48h-2.745c-.809-.074-1.544.956-2.06 1.544-.146.147-.293.294-.44.22-.662.148-.883 1.03-1.03 1.545-.515 1.618-1.176 3.089-1.471 4.706-1.985 6.399-2.942 13.017-2.942 19.71.074 5.809 2.06 11.25 4.34 16.472.367 1.03.809 2.427 1.838 3.015.81.22 1.324 1.103 2.133 1.471.7.485 1.468.622 2.248.558.227.02.456.019.686 0 .227.02.456.019.687 0 .226.02.456.019.686 0 1.558.138 3.232-.73 4.542-1.44 9.265-6.472 8.162-23.386 6.986-33.314 0-2.942-1.398-5.442-2.06-8.163z"/><path class="st0" d="M142.157 34.266l.592-.002a.13.13 0 00.098 0l.588-.001c.777.302.021-5.513.089-6.06a56.11 56.11 0 01.221-8.604c0-1.03 1.25-2.059.515-3.088h-2.745c-3.03 3.311-7.814 3.584-12.22 3.666-.126 0-.255.003-.383.004a33.565 33.565 0 00-.647 0c-1.166-.039-2.316-.194-3.346-.729-.442-.441-.81-1.03-1.177-1.47-.147-.221-.368-.368-.514-.516 0-.04-.004-.057-.016-.065V17.4l-.058-.062H120.4c-.01 0-.028.018-.064.055 0 0 .067.016.08.116.42 5.627-.373 11.467-.08 16.945.147.074.22-.147.22-.294.118-.47.436-.265.466.294.147.074.22-.147.22-.294.118-.47.436-.265.466.294.147.074.22-.147.22-.294.118-.47.436-.265.466.294.147.074.22-.147.22-.294.118-.47.436-.265.466.294.148.074.22-.147.22-.294.442-1.765 1.251-3.456 1.545-5.221-.074-.883.441-1.618.515-2.427.368-1.47.514-3.089 1.25-4.412.097-.026.177-.05.248-.072.83.94 1.162 2.478 1.494 3.969a1259.9 1259.9 0 000 23.607c.146 3.53 0 6.986-.074 10.516 0 3.089-.956 6.177-3.75 7.795-.368.294-.957.515-.957 1.03-.073.293-.441.514-.735.661.075.575.614.695 1.33.606.197.034.428.032.686 0 .197.034.429.032.686 0 .197.034.429.032.686 0 1.264.218 4.009-1.136 4.872-1.194.17-.147.6-.23 1.186-.27 1.708.06 3.529.18 4.535.154.256.005.486.005.686 0 .256.005.487.005.686 0 .256.005.487.005.686 0 1.588.03 2.225-.099.163-.766-3.235-1.545-4.78-5.516-3.971-8.825.074-2.206-.073-4.413.294-6.545-.074-1.398-.074-2.795-.074-4.119.222-.808.222-1.617.148-2.426 0-.883-.294-1.839.147-2.721.147-.368-.295-.736-.147-1.177.22-.736-.148-1.47.147-2.133a1.83 1.83 0 000-1.25c-.147-1.03.073-2.06-.073-3.162-.222-.662-.295-1.324-.295-2.06.073-3.382.368-6.839.883-10.221.074-.294-.368-.368-.368-.736 0-.22.147-.735-.074-.735h-1.372c-.037.047-.073.106-.11.16-.04-.202-.034-.357.085-.38.45-.113.919-.186 1.397-.222h.025c.003 0 .006 0 .009-.002.102-.007.204-.008.307-.012.123.005.246.005.369.015.543.53.283 1.858 1.032 3.31.882 1.47 1.691 2.94 1.985 4.632.294 1.544.368 3.162 1.104 4.56.12.152.216.204.292.182l.618-.002c.025.007.05.007.072 0l.604-.001a.13.13 0 00.085 0z"/><path class="st0" d="M120.336 34.454h2.744l.14-1.08-1.131-.63-1.38.855-.373.855"/><path class="st1" d="M122.248 21.585c-.074-.074-.074-.074-.148-.074l-.147.147c-.147.662.074 1.765-.588 1.986-.294.22-.294 1.912-.073 2.28.514-.368.661-1.324 1.103-1.912.146-.442.662-.736.808-1.103a3.61 3.61 0 01.295-.81c0-.367-.957-.147-1.25-.514zM130.337 21.952v.074l.074-.074h-.074zM128.72 67.4c.146.294.514.147.808.074.22-.147.147-.515-.073-.736-.295-.147-.515.515-.736.662z"/><path class="st1" d="M128.572 63.503c-.368 1.25-1.03 2.353-1.324 3.603 1.324 1.618 2.133-1.692 2.427-2.72.147-.59 0-1.251-.367-1.766-.516-.073-.589.441-.736.883zM159.752 60.487v.074c0 .073.074.147 0 .22-.073 0 0-.147 0-.22v-.074c.22-1.323.515-2.72.294-4.044-1.176 2.647-1.47 5.883-2.5 8.604.588-.073.956-1.177 1.544-1.103.148-.147.368-.074.589-.147.808-1.398 1.25-2.868 1.25-4.486.074-.368.074-.809.074-1.177-.662.368-.589 1.839-1.25 2.353zM158.576 24.306c.441 2.133 1.69 14.781 1.618 5.515.588 1.103.735 2.648.882 3.898 0 .22.073.514.295.588.808-2.868-.148-6.324-1.619-8.825-.662.22-.514-1.69-1.176-1.176zM157.546 65.047l.073.073c0-.073 0-.073-.073-.073zM147.398 64.238c0-.074.073-.074.073-.147h-.147c0 .073.074.073.074.147zM139.824 20.04c.22.295.367.589.44.883.369-.588.442-1.912-.44-.883zM130.484 58.502c-.956.956-.515 4.045-.662 5.515.074.736.22 1.471.81 1.986.367.22.293-.441.514-.589.368.515.809.957 1.25 1.398.074 0 .074.147 0 .147-.294 0-.515-.294-.735-.074-.147.221-.368.368-.515.515.22.441 1.25 0 1.765.294.441.074.882.147 1.324.147-.074-.367-.516-.956-.883-1.03-.956 0-2.574-6.397-2.353-7.353h-.074c0-.294.074-1.177-.44-.956zM138.133 21.364c-.442-.368-.957-.074-1.472-.147-.367.294.442.883.442 1.25.22.662.514 1.25.956 1.765.147-.147-.074-.588.074-.735.293-.074.588.515.808.147.441-.662-.368-1.471.22-2.133.221-.073.442-.294.442-.588 0-.073 0-.22-.073-.294-.442.294-1.03.294-1.397.735zM147.618 64.66v.02c.074.146.074 0 0-.074v.055z"/><path class="st1" d="M147.103 61.076v-.294.514c.441 0 .368.662.736.81.588-1.398-1.176-4.413-1.692-5.957-.514.294.22 2.353.368 2.868v.294c-.074.073 0-.074 0-.074V59.017c-.736-.883-1.177-2.133-1.617-3.236 0-.147-.074-.368-.222-.368.074 2.5 1.103 6.692 2.648 8.678 0 0 .074-.074.147 0 .294.147.441.515.662.662.073-1.25-.515-2.354-1.03-3.457v-.22zM130.263 24.894c.956-.368-.44-4.78-.882-2.206a.74.74 0 01-.368-.81c-.367-.146-1.103-.293-1.25 0a14.514 14.514 0 011.545 3.237c.22-.147.22-.441.44-.662.221-.074.221.515.515.441z"/><path class="st2" d="M120.336 17.393h.073c0-.073 0-.073-.073 0zM159.752 60.782c.074-.074 0-.148 0-.22 0 .072-.073.22 0 .22zM146.515 59.31v-.073s-.074.147 0 .074zM152.325 67.915h-.074v.073c.074 0 .074 0 .074-.073zM147.324 64.091h.147c-.073-.074-.147 0-.147 0z"/><path class="st3" d="M141.515 16.51c-3.162 3.457-8.236 3.604-12.796 3.678-2.132-.074-4.56.294-6.545-.736-.441-.441-.81-1.03-1.176-1.47-.148-.221-.368-.368-.515-.516 0-.073 0-.073-.074-.073.441 5.662-.368 11.546-.073 17.061.147.074.22-.147.22-.294.442-1.765 1.25-3.456 1.545-5.221-.074-.883.44-1.618.514-2.427.368-1.47.515-3.089 1.25-4.412 1.398-.368-.073-.368-.073-.883 3.383-.662 3.971 2.133 4.56 4.78a1259.9 1259.9 0 000 23.606c.146 3.53 0 6.987-.074 10.517 0 3.089-.956 6.177-3.75 7.795-.368.294-.957.515-.957 1.03-.073.293-.441.514-.735.661.22 1.692 4.412-.514 5.516-.588 1.102-.956 13.163.809 7.942-.882-3.236-1.545-4.78-5.516-3.972-8.825.074-2.206-.073-4.413.295-6.545-.074-1.398-.074-2.795-.074-4.119.221-.808.221-1.617.147-2.426 0-.883-.294-1.839.148-2.721.146-.368-.295-.736-.148-1.177.22-.736-.147-1.47.148-2.133a1.83 1.83 0 000-1.25c-.148-1.03.073-2.06-.074-3.162-.221-.662-.294-1.324-.294-2.06.073-3.382.368-6.839.882-10.221.074-.294-.368-.368-.368-.736 0-.22.147-.735-.073-.735-.294.368-.589.956-.515 1.471.22 1.397 0 2.794-.515 4.118-.367.147-.147-.588-.441-.294-.883.588-.515-4.266.368-3.824 0-.368-.662-1.618-.294-1.692.882-.22 1.838-.294 2.794-.22 3.236-.956 1.912 1.03 3.089 3.31.882 1.47 1.691 2.94 1.985 4.632.294 1.544.368 3.162 1.104 4.56 1.103 1.397.22-5.295.293-5.883a56.11 56.11 0 01.221-8.605c0-1.03 1.25-2.059.515-3.088zm-18.312 6.399c-.146.367-.662.661-.808 1.103-.442.588-.589 1.544-1.103 1.912-.22-.368-.22-2.06.073-2.28.662-.22.441-1.324.588-1.986l.148-.147c.073 0 .073 0 .147.074.293.367 1.25.147 1.25.515a3.61 3.61 0 00-.295.809zm7.134-.957h.074l-.074.074v-.074zm-.809 45.522c-.294.073-.662.22-.809-.074.22-.147.441-.809.735-.662.221.22.295.589.074.736zm.147-3.089c-.294 1.03-1.103 4.339-2.427 2.721.295-1.25.956-2.353 1.324-3.603.147-.442.22-.956.736-.883.367.515.514 1.177.367 1.765zm-.367-39.27a14.515 14.515 0 00-1.545-3.236c.147-.294.883-.147 1.25 0a.74.74 0 00.368.809c.441-2.574 1.838 1.838.882 2.206-.294.074-.294-.515-.514-.441-.22.22-.22.515-.441.662zm1.691 34.343c-.221.956 1.397 7.354 2.353 7.354.367.073.81.662.883 1.03-.442 0-.883-.074-1.324-.148-.515-.294-1.545.147-1.765-.294.147-.147.368-.294.515-.515.22-.22.44.074.735.074.074 0 .074-.147 0-.147-.441-.441-.882-.883-1.25-1.398-.22.148-.147.81-.515.589-.588-.515-.735-1.25-.809-1.986.147-1.47-.294-4.56.662-5.515.515-.22.441.662.441.956H131zm8.163-37.947c-.589.662.22 1.471-.22 2.133-.221.368-.516-.22-.81-.147-.147.147.074.588-.073.735-.442-.515-.736-1.103-.956-1.765 0-.367-.81-.956-.442-1.25.515.073 1.03-.22 1.472.147.367-.441.955-.441 1.397-.735.073.073.073.22.073.294 0 .294-.22.515-.441.588zm1.103-.588a2.49 2.49 0 00-.441-.883c.882-1.03.809.295.44.883zM161.59 26.953c-.735-2.5-2.132-4.633-3.75-6.618-1.176-.442-2.5-1.398-3.897-1.398-.736.148-.589.883.147.81 3.162.66 3.75 4.265 4.044 7.06 0 .514.221 1.102-.073 1.617-.294.662.073 1.47.073 2.206 1.03 9.634 1.692 19.415.074 29.122-.074 2.132-2.353 8.53-4.707 8.457-.44-.073-.955.147-1.25-.22V67.987c-.147-.073-.147-.073 0-.147-1.618-.662-4.265-4.265-3.015-5.883-1.176-8.604-2.28-17.355-1.25-26.106.441-3.604 1.177-7.208 2.28-10.664.073-.735 1.47-3.015.441-3.088-1.103.073-.882 1.25-1.47 1.912-.957 1.102-.59 2.5-1.03 3.75-.074.368-.442.588-.442.882-.073.295 0 .589-.22.81-1.766 5-1.47.588-.662-1.545-.294-1.25.44-2.5 1.03-3.677.587-1.25 1.912-2.353 2.28-3.603-.81-.074-1.545.956-2.06 1.544-.147.147-.294.294-.441.22-.662.148-.883 1.03-1.03 1.545-.515 1.618-1.176 3.089-1.471 4.706-1.985 6.399-2.942 13.017-2.942 19.71.074 5.809 2.06 11.25 4.34 16.472.367 1.03.809 2.427 1.838 3.015.81.22 1.324 1.103 2.133 1.471 1.912 1.324 4.339.074 6.104-.882 9.266-6.472 8.163-23.386 6.986-33.314 0-2.942-1.398-5.442-2.06-8.163zM147.619 64.68v-.018-.055c.074.073.074.22 0 .073zm-.147-.588c0 .073-.073.073-.073.147 0-.074-.074-.074-.074-.147-1.545-1.986-2.574-6.177-2.648-8.678.148 0 .222.22.222.368.44 1.103.881 2.353 1.617 3.236-.147-.515-.882-2.574-.368-2.868.515 1.544 2.28 4.559 1.692 5.956-.368-.147-.295-.809-.736-.809.515 1.103 1.103 2.207 1.03 3.457-.22-.147-.368-.515-.662-.662zm13.458-4.78c0 1.618-.442 3.088-1.25 4.486-.22.073-.441 0-.589.147-.588-.074-.956 1.03-1.544 1.103.073 0 .073 0 .073.073l-.073-.073c1.03-2.721 1.324-5.957 2.5-8.604.22 1.323-.073 2.72-.294 4.044.662-.514.589-1.985 1.25-2.353 0 .368 0 .809-.073 1.177zm.441-25.004c-.22-.074-.294-.368-.294-.588-.147-1.25-.294-2.795-.882-3.898.073 9.266-1.177-3.382-1.618-5.515.662-.515.514 1.397 1.176 1.176 1.471 2.5 2.427 5.957 1.618 8.825zm1.25 5.295c-.368-.735-.147-1.765-.294-2.647.074-1.103-.662-2.427-.147-3.457 1.03.295.883 5.074.441 6.104z"/></g><g><path class="st0" d="M104.99 56.663c-1.25-4.118-2.72-8.162-3.971-12.207-.074-.515-.074-.515-.441-.736-.147-1.47-.368-2.941-1.03-4.265 1.323-4.192 3.677-8.237 5.59-12.208 1.617-2.647 3.382-5.442 5.514-7.722.238-.346.182-.48-.026-.5H107.878l-.002.002c-.499-.044-1.862.572-2.173.572-1.47.441-2.942.883-4.412 1.03-.295 0-.442.147-.222.367 2.207 2.06.736 4.78-.514 6.987-1.324 2.5-2.5 5.148-3.824 7.721-.206.28-.463.801-.744 1.44.054-5.867-.695-12.081 1.503-17.545.147-.147-.074-.22-.22-.22h-2.745c-1.47.588-3.236.735-4.854 1.103-1.103.514-3.456-.295-3.75 1.25 2.794 2.647 2.794 6.618 2.5 10.148-.22 4.486-.147 8.972-.22 13.458.073 4.413.44 8.825.367 13.237.158 2.854-.106 5.857-1.329 8.414-.674-.468-.96-1.27-1.367-2.015-2.722-6.914-2.133-14.414-3.677-21.474-1.398-9.781-3.31-19.415-2.721-29.27h-2.745c-1.838 1.325-3.236 3.384-5 5.001-.589.589-1.618.589-2.206 1.177.146.22.514.147.735.147 1.176.074 1.618 1.25 1.985 2.206-2.647 14.12-5.589 28.166-7.206 42.507-.432.517-.819 1.066-1.235 1.571-.22-1.606-.58-3.515-.506-3.851-.073-2.354-.147-4.78-.073-7.207 0-1.912.514-4.118-.147-5.957H60.33c-1.618 1.47-1.544 4.412-2.059 6.545 0 1.177-1.765 6.03-.81 6.398-.035.552.034.779.163.8 0 0 1.297.017 1.97.014l.042.66h-1.923l.019.018c-.043 0-.088-.008-.128 0-.803-.125-1.615-.184-2.471-.242-1.765-.147-2.427.368-2.06-1.838-.441-5.442.074-10.884-.367-16.326.26-5.937-.805-4.699 2.852-5.473.007.144.017.33.02.52a.607.607 0 00-.15-.121 1.788 1.788 0 00-.001.875.109.109 0 01-.097.007c-.148-.294-.295-.735-.589-.882a1.789 1.789 0 000 .882v.588c.22 1.84.809 3.825 1.177 5.516.041.083.08.127.116.155l-.006.027h.042a.095.095 0 00.069 0h.617a.095.095 0 00.069 0h.617a.095.095 0 00.069 0h.618a.095.095 0 00.068 0h.618c.141.053.251-.237.362-.403.148-.22.515-.22.441-.514 0-3.016-.367-6.03-.22-9.046-.073-1.544.367-3.309 0-4.78-.22-.073-.22.441-.441.22-.053-1.224-.168-1.64-.32-1.549l-2.88-.063v.26c-.498 1.022-1.246 5.638-1.604 6.353.39-.065.377.329.268.574h-.017a12.662 12.662 0 00-.686 0l-.136-.003c-.39-.037-.656-.13-.656-.35-.147-2.942.22-5.81.074-8.678.146-3.824-.294-7.721-.147-11.545.073-.295.22-.736.588-.736a6.632 6.632 0 002.354-.662c.514-.073 1.029-.367 1.543-.294.662 0 1.25-.515 1.913-.441a.403.403 0 00.243-.082c-.036.396-.092.835-.145 1.24a.51.51 0 00-.164.145.49.49 0 00-.13-.127c-.223-.149-.427-.052-.556.127a.49.49 0 00-.13-.127c-.223-.149-.427-.052-.556.127a.49.49 0 00-.13-.127c-.442-.294-.81.368-.662.736v.22l-.148.148c-.66.294.368 1.544.295 2.206 1.03 3.53 1.397 7.722 2.942 10.957h2.744c.956-2.5.22-5.736.147-8.457-.294-3.824.147-7.648.368-11.472-.435-.394-.727-.4-.95-.203-.295-.186-.511-.154-.686 0-.295-.186-.512-.154-.686 0-.295-.186-.512-.154-.686 0-1.258-.79-1.123 2.23-2.09 2.85.068.408.627.015.422.589H57.39c-1.03.073-2.133.294-3.162.367-3.972.442-7.943 1.03-11.914 1.25-.294.295.22.442.294.663.074.294.294.44.515.588 1.03.735 1.765 1.912 2.5 2.942.073.367.073.735.147 1.029.074 1.544 0 3.089-.22 4.56-.295 1.985-.147 3.97-.442 5.956 0 1.103.221 2.133-.147 3.163-.514.735-.146 1.617-.294 2.426.148 2.353-.074 4.707.22 6.987.074.588.442 4.338-.22 1.838-.368.22-.147.662-.147 1.03.22.662 0 1.617.515 2.132.294-1.47.368 1.471.147 1.692-.589-1.103-.294 2.72-.367 3.015 0 .073 0 .147.073.22h.147c.22.295.073.736.22 1.03.295.662-.588.735-.22 1.324.412.55-.524 4.697.073 4.814v.002h2.764a.419.419 0 00.178.184c.073 0 .22 0 .294.147-.073.368.368 1.25-.147 1.471-1.25 0-2.574.147-3.898.294-.661-.147-5.81 1.471-3.31 1.912h2.745c3.644-.383 7.35-.982 11.037-1.11 1.048.042 2.093.137 3.133.302.294.367-.514 0-.662.22 1.03 1.25 2.648 2.06 3.53 3.456.128.16.222.218.292.202H63.817l-.003-.01c.05-.019.09-.073.113-.174.092-.003.185-.005.274-.018l.014-.005c.223.033.454.037.672.005l.014-.005c.223.033.454.037.673.005.956-.44 9.854-1.323 4.927-1.617-2.48-1.374-1.385-8.616-.01-15.173.046.007.094.012.134.023.319.014.644.012.971.006.227.004.456.004.686 0 .227.004.456.004.686 0 .227.004.456.004.687 0 .695.014 1.41-.022 2.121-.06 1.17 4.628.66 9.547 2.129 14.1h2.058a.81.81 0 00.422-.491c.263.634.496 1.166.593.193a.756.756 0 00.05-.09c.325.445.28 1.135.775 1.418.032.064-.011.084-.07.095-.194-.003-.387.001-.58.004a18.728 18.728 0 00-.687 0c-1.364-.029-2.744.093-4.032.269-2.243.395-2.879 1.32-.813 1.189.182.017.41.017.686 0 .182.017.41.017.686 0 .182.017.41.017.686 0 .339.03.827.012 1.5-.086a9.924 9.924 0 011.619-.22c.628.019 1.253.036 1.863.027.23.003.46.003.687 0 .23.003.459.003.686 0 .23.003.459.003.686 0 .562.007 1.115-.001 1.65-.042a9.95 9.95 0 01-1.039 1.264c-.159.223-.026.319.195.348l-.003.002h.018c.096.01.204.01.317 0h.386c.087.01.185.007.286 0h.4c.087.01.186.007.286 0h.4c.087.01.186.007.286 0h.455c.05.003.101.002.156 0h.054l.006-.003c.24-.016.49-.068.606-.126 1.503-.284 3.051-.673 4.583-.847.305.045.609.102.909.185.246.091.412.106.527.077l.003.006.505.002a.6.6 0 00.138 0l.58.003a.604.604 0 00.091 0l.627.004h.045l.635.003h.034v-.001c.708-.015-.049-1.34-.367-1.785-.662-1.177-1.177-2.5-1.545-3.824-.367-2.06-.44-4.118-.294-6.177.06-.357.035-3.165.092-6.01.848 2.88 1.76 5.727 2.826 8.51-.073 3.015 3.016 7.721-.588 9.633-.235.364.291.453 1.185.408.19.014.421.014.686 0 .19.014.421.014.687 0 .19.014.42.014.686 0 1.317.098 4.682-.546 6.72-.723.03.007.061.013.086.021h1.373a.17.17 0 00.012-.117c.046.013.088.032.135.044h2.059c-4.119-3.015-5.075-8.163-6.62-12.723zM59.389 15.017l-.009.023h-.08a.126.126 0 01.089-.023zm15.868 35.616c-.607.043-2.826-.013-4.484.203.828-3.81 1.677-7.227 1.86-8.88.396-1.845.718-3.734 1.045-5.614.012.056.022.115.035.171.736 4.56 1.47 9.12 1.912 13.753 0 .22-.073.367-.368.367zm5.78 13.88c-.016-.258 0-.505.127-.716.005-.003.007-.008.012-.012a5.197 5.197 0 01-.138.728zm-.264-4.059c.278.63.423 1.41.451 2.173a21.079 21.079 0 01-.451-2.173zm28.598 7.54c-.019-.02-.036-.042-.054-.062l.028-.002c.009.021.016.045.026.064zm-.695-.021c.003.006.005.015.009.021l-.019-.02.01-.001z"/><path class="st0" d="M31.905 49.607c6.888.25 10.871-6.89 10.652-13.094.883-5.736.074-13.825-6.397-16.031-1.25-.589-2.574-.589-3.972-.662-.353 0-.37-.74-.698-.666l-.006-.013h-2.709l.003.012c-.023.001-.043-.006-.07.005-.053.225-.234.37-.49.466-1.6-.219-3.332-.59-4.094-.492a3.47 3.47 0 00-.686 0 3.47 3.47 0 00-.686 0 3.47 3.47 0 00-.687 0 3.356 3.356 0 00-.705.003c-.085-.58-.154-1.161-.127-1.742 0-.106-.078-.134-.175-.114h-.594a.212.212 0 00-.093 0h-.593a.212.212 0 00-.093 0h-.594a.212.212 0 00-.092 0h-.594c-.056-.015-.133.001-.212.04a30.93 30.93 0 01-.866.704 26.159 26.159 0 00-.728-.336 7.219 7.219 0 00-2.096-.197 6.682 6.682 0 00-.686 0 6.682 6.682 0 00-.686 0 6.682 6.682 0 00-.687 0c-4.061-.205-6.723 3.223-7.12 7.257-1.03 2.868-1.03 5.883-.956 8.898.147 4.045 1.544 7.942 3.824 11.326 1.692 2.647 4.633 4.265 6.25 6.912.221 4.34 2.942 8.899.957 13.09-.566 1.075-1.09 2.278-2.138 2.743-1.27-.53-2.261-1.84-2.84-2.89-.44-.809 0-1.691-.44-2.5-1.692-3.162-2.354-6.766-2.795-10.296-.102-.187-.184-.27-.25-.275a.08.08 0 00-.012 0H6.25a.08.08 0 00-.013 0h-.673a.08.08 0 00-.013 0h-.674a.08.08 0 00-.012 0h-.683c-.49.02-.044 4.676-.108 5.129-.515 3.971.147 7.942-.221 11.914.074.955-1.03 2.573 0 3.015h2.745c.515-.295.515-.81.735-1.25.265-.796.724-1.476 1.234-2.153.987.63 2.06.865 3.146.796.227.014.456.015.686 0 .227.014.456.015.686 0 .228.014.456.015.686 0 2.592.153 5.346-1.564 7.24-3.865 1.692-2.206.957-5.516 1.913-8.163.955-5.59-1.324-11.178-4.192-15.885-2.5-2.794-6.104-4.78-6.84-8.75-1.47-3.237-1.985-7.134-.22-10.37.528-1.103 1.152-2.545 2.153-3.214 1.28.498 2.22 1.455 2.898 2.626.147.073.515.073.515.294l-.038.2-.012-.053c-.338-.213-.507.019-.566.5a27.388 27.388 0 01-.12-.5c-1.397-.882.074 5.81.368 6.545.441 1.25 1.765 4.78 3.015 5h2.745c.22-.66-.074-1.323-.22-1.911-.59-3.089-.957-6.251-.884-9.413.15-.82.053-1.64-.069-2.46.181.091.378.172.486.253 1.323 1.324 1.544 3.53 2.059 5.222.44 1.985.073 3.97.147 5.956-.147 1.839.368 3.677 0 5.516.441 5 .22 10.148.294 15.149-.147 3.53.588 7.06-.368 10.516-.44 2.28-1.103 4.78-2.5 6.693-.411.41.112.627.527.587l-.01.012h2.671a.74.74 0 00.365-.085c2.56-1.096 5.19-1.756 7.967-1.908.224.014.44.02.621-.004.247.017.488.026.686 0 .583.04 1.129.035 1.17-.367-.074-.294-.221-.515-.516-.736-1.397-.956-2.28-2.5-2.72-4.118-.956-4.188-.736-8.597-.59-12.859.054 0 .106-.006.159-.007zM45.107 56.001c-.22-.44-.367.074-.147.221.147 0 .147-.147.147-.22z"/><path class="st1" d="M88.861 66.224h.074c0-.148-.074-.074-.074 0zM74.522 19.379c-.735.22-.735.22-.368.808-.514 2.5-.073 5.957 1.471 7.87 0-.074.073-.221.073-.368.957.661 0-6.987-.588-7.501-.073-.589.221-1.25-.588-.81zM98.127 44.75l.147-.294-.294-.147c0 .147.074.294.147.44zM72.463 23.35c-.22 1.765.147 3.75.882 5.442 1.398.662.147-6.104-.882-5.442zM103.349 22.835c.146-.147.073-.735.368-1.03.588-.735 0-.588-.589-.515-.295 0-.662-.073-.883.074.074.588.662 1.103 1.104 1.47zM48.27 58.943c.073.588 0 1.397.294 1.912.368-.662 0-1.838-.147-2.574-.22.147-.147.441-.147.662zM75.184 18.275c-.147 0-.22.148-.22.221 0 .294.44 0 .22-.22z"/><path class="st1" d="M91.509 66.738c-.295.441-.368 1.692-.883.441-.22 0-.44 0-.22-.22.073-.074.22 0 .294-.074.147-.22.367.294.514-.073.441-1.03.22-2.206-.514-3.163 0-.073-.074-.146-.074-.146-.074-.074-.147-.074-.22 0-.368.073-.368-.368-.516-.589-.293-.073-.146-.441-.44-.515v-.147c-.074.22.22.589-.148.515-.367 1.103.221 2.427-.367 3.456h-.074c-.809.515-1.103 1.692-1.691 2.427 1.47.074 3.162-.44 4.78-.294.22 0 .147-.22.073-.368-.22-.294-.22-1.103-.514-1.25zm-2.427 1.177v.073c0 .074-.073.074-.147.074v-.074h.147v-.073c0-.074 0-.147.073-.22l.22-.221c.222.073-.146.441-.293.441zm1.176-2.28l.074.074c0 .662-.442.22-.074-.074zM80.993 65.782v-.22c-.073.073 0 .147 0 .22zM48.27 19.82c-.148-.441 0-1.986-.368-2.06-.074.295-.074.589-.442.663-.073 0-.073.073-.146.147.735 1.25.22 2.794.441 4.191.22.589.147 1.104.22 1.765.221.442-.22.956.147 1.324.442 2.28.81-.147.883-1.03.074-1.69 0-3.382-.294-5-.147-1.397-.074-1.103-.441 0zM103.055 68.577v-.074c.22 0 .808.147.588-.22-.294-.368-.589-1.03-.956-1.324-.368.294-.295.882-.442 1.25-.073.441.515.294.81.368zM100.48 61.664c.074 1.397.588 2.868.81 4.265l-.295.147c.073.368 0 .736-.22 1.03 0 .368.147.515-.295.735-.147.147.295.22.074.442-.147.147.147.735.294.515.22-.442.736-.81.809-1.324 0-.368.515-.147.515-.515.661-.736-.882-6.251-1.692-5.295zM91.582 61.15c-.22.146-.22-.442-.294-.148-.074 2.28.809 4.412 1.618 6.545.147.074.22.294.368.368 0-.147 0-.294.146-.442.221-.146.148-.514.074-.808-.956-1.692-1.177-3.677-1.765-5.442 0-.074-.074-.074-.147-.074zM92.832 20.482c-.956.662-2.5.368-3.162 1.323-.073 0-.147-.22-.294-.294-.662-.073-1.324.074-2.06.074-.22.22.369.662.442.956.367.294.883 1.912 1.25 1.324.147-.148.221-.074.294.073.221.441.147 2.574.883 2.28.22-.441.073-2.942.882-2.133.074 1.692-1.03 4.927.442 6.03-.22 2.868.735 1.618 1.03-.22 0-2.133.293-4.633-.074-6.545-.221 1.03-.074 2.206-.442 3.162-.147-.81 0-1.544-.147-2.353-.662-.956.662-4.78.883-1.618.515-.147.44-1.103.809-1.545.588-1.029-.074-.735-.736-.514zm-.367 4.853c.073-.073.073.074 0 .147v-.147zM93.274 67.915c-.074.809.808.588 0 0zM94.67 43.5c-.514.294.148 1.985.368.882-.146-.22-.073-.882-.367-.882zM104.966 68.577c0-.147-.368-.589-.514-.441-.074.294.294.735.514.44zM15.62 52.471c-.221 1.398.294 2.942.882 4.192.147.074.368.074.588 0 .81-.588-.662-6.765-1.47-4.192zm1.323 3.824v.074c0 .147-.073 0 0-.074zM27.9 21.511c.146-.22.367-.809-.074-.809-.442-.073-.147.736.074.81zM25.693 21.29c.442.221.956-.808 1.25-.367-.588 2.647-.22 5.295-.073 7.869.294-.442.147-1.25.514-1.692.368.883 0 2.133.368 3.163 1.03-2.06.515-4.34.22-6.546-.072-.147-.146.074-.22.22-.588-.66 0-3.602-.662-3.53-.22.222-.514.295-.735.222-.736-.368-1.544.22-2.133-.294-1.25-1.324-.662 1.176-.073 1.617 1.176 1.398.956 3.457 1.765 4.927 1.103-1.838-1.692-5.662-.22-5.589zM46.872 42.544v-.074h-.073s0 .074.073.074zM34.224 25.335c-.22-1.25-1.324-1.985-1.913-2.941 0-.368-.514-.515-.808-.736-.589-.147-1.986-1.103-2.354-.44a2.56 2.56 0 00.295 1.617 21.882 21.882 0 00-.068 4.64c.432.44.215.952.289 1.464.146.588.146 1.25-.074 1.838-.147.883.294 1.839-.074 2.648.074 4.56-.956 9.045-.514 13.678.073 1.912 5.147-.441 4.927-2.132 1.618-6.399 2.868-13.385.294-19.636zM28.046 58.428c-.073-.588.295-1.544-.294-1.985-.588.809-.073 2.132-.808 2.794-.295 1.03 0 2.207-.148 3.236-.294-1.544 0-3.162-.588-4.707-.294.074-.073.368-.22.515 0-.073-.074-.147-.074-.22-.295 2.353-.147 5.074-1.177 7.28-.662.368-.662 1.47-1.177 2.06-.294.514.515.22.736.146 2.648-1.103 4.927.662 3.383-2.794 0-.074-.074-.147-.147-.147-.074-.074-.148-.074-.22 0-.368.073-.295.514-.442.735-1.103 1.03-.735-1.544-.074-1.838.294.22 0 .735.294.882.148-.441 0-2.574.294-2.5.662 1.25 1.03 2.941 2.133 3.75.589.221.22-.588.074-.882-.442-1.104-1.03-2.206-1.177-3.383-.073-.956 0-1.986-.368-2.942zM11.133 39.97c0-.368-.293-.662-.514-.956-.589-.515-.883-1.324-1.618-1.765-.588-.662-.882-1.765-.956-2.648-.515-1.618-1.103-3.31-1.103-5.074-.22-.22-.588 1.03-.442 1.324-.44 1.103-.294-2.28-.294-2.5 0-.295.074-1.324-.367-.883-.662 1.618-.589 3.383-.589 5.074 0 .883.368 1.765.736 2.648.368 1.47.514 3.162 1.691 4.338.147-1.176-.662-2.573-.294-3.897.22-.368.515.809.736 1.03.146.367.514.588.661.882.442 1.177 1.692 3.604 2.942 3.53.22-.662-.735-.515-.589-1.103zm-5.368-6.251v-.074s.074 0 .074.074h-.074zM5.324 62.179c-.441 1.47-.368 2.941-.294 4.412.147.368.367-.294.515-.367.147-.295.661-.515.515-.883-.148-.515.294-1.03-.074-1.47-.147-.222.074-.516.147-.736-.073-.441-.294-1.618-.81-.956zM18.267 54.678c.588-.442 0-3.824-.589-2.207-.073.221-.146.515-.073.81 0 .367.073 1.544.662 1.397zM17.016 63.723c.589-.368.222 1.03.81.294.515-.662.44-1.544.809-2.206.514-.882 1.176-2.059.514-2.941-.146-2.06-.588-1.545-.956.073-.515-.073-.073-1.397-.661-1.838-.662 1.25-1.545 5.442-.516 6.618zm.516-5.663c-.074 0-.148.074-.148-.073.074 0 .22-.073.148.073zm-.368.736c.368-.515.44.735.514.956-.367-.147-.588-.588-.514-.956z"/><path class="st1" d="M29.382 27.544c.02.22.034.442.062.66 0-.2-.007-.406-.062-.66zM45.107 48.795c0 .073.074 0 .074-.221 0-.073-.074-.073-.074-.147-.147-.22-.073.294 0 .368zM45.034 40.19v.22c.073.075.073.075.073.148 0-.147 0-.294-.073-.368zM44.96 39.014c-.146.073-.073.294-.073.441.294.367.367-.441.073-.441zM45.254 54.604s.074-.074.148-.074c.147-1.985-.956-1.176-.148.074zM55.476 39.455c.22-.073.368-1.397.22-1.47-.366.293-.44.882-.808 1.176-.147.294.368.294.588.294zM32.606 21.511c0 .662.735.956 1.177 1.324 1.765 1.324 1.691 3.604 2.426 5.369.442-.515.148-.957.22-1.471.369-1.177 1.03 2.28 1.325 2.28.368-1.324-.441-3.163-1.177-4.34-.515-.661-3.604-5.736-3.97-3.162zM37.018 42.102c.074.074.074-.073.074-.073-.074 0-.074.073-.074.073zM36.283 39.97c-.515 1.103-.294 2.794-1.03 3.97-.44.736-.588 1.619-.882 2.428-.073 0 0 .147.073.073.956-.662 1.692-1.544 2.28-2.5.22-.441.368-.883.368-1.324-.81-.515-.294-1.912-.81-2.647zM46.063 20.555c.368.589.736 1.25 1.104 1.839.147-.147.147-.515.073-.662-.147-.515.074-1.103-.22-1.618-.074-.22-.736-1.03-.074-.883.294 0 .073-.367.073-.588-.22-.44-.956.147-1.176-.368-.441-.367-.956.295-1.471.148-.22.514 1.25 1.617 1.25 2.427.294.073.22-.442.441-.295z"/><path class="st2" d="M17.532 58.06c.073-.146-.074-.073-.148-.073 0 .147.074.073.148.073zM17.678 59.752c-.073-.22-.146-1.47-.514-.956-.074.368.147.809.514.956zM5.765 33.645v.074h.074c0-.074-.074-.074-.074-.074zM16.943 56.37v-.075c-.073.074 0 .221 0 .074zM29.382 27.544a19.003 19.003 0 01-.006-.069l-.006-.007c.007.028.006.05.012.076zM45.107 56.001c-.22-.44-.367.074-.147.221.147 0 .147-.147.147-.22zM89.376 67.474l-.22.22c-.074.074-.074.147-.074.221.147 0 .515-.368.294-.441zM102.687 63.503h-.074v.073s0-.073.074-.073zM88.935 68.062c.074 0 .147 0 .147-.074h-.147v.074zM90.258 65.635c-.368.294.074.736.074.074l-.074-.074zM92.465 25.335v.147c.073-.073.073-.22 0-.147z"/><path class="st3" d="M9.148 32.542c-1.47-3.236-1.986-7.133-.22-10.37.808-1.69 1.838-4.19 4.118-3.455 1.69.368 2.868 1.47 3.677 2.868.147.073.515.073.515.294-.295 1.544-.295 2.059-.736.147-1.397-.882.074 5.81.368 6.545.441 1.25 1.765 4.78 3.015 5 .22-.66-.074-1.323-.22-1.911-.589-3.089-.957-6.251-.884-9.413.295-1.618-.367-3.236-.293-4.854 0-.147-.147-.147-.295-.073-2.206 1.838-1.838 1.47-4.339.367-4.853-1.177-8.089 2.574-8.53 7.06-1.03 2.868-1.03 5.883-.956 8.898.147 4.045 1.544 7.942 3.824 11.326 1.692 2.647 4.633 4.265 6.25 6.912.221 4.34 2.942 8.899.957 13.09-.736 1.398-1.397 3.015-3.236 2.942-2.059.368-3.676-1.618-4.486-3.089-.44-.809 0-1.691-.44-2.5C5.544 59.164 4.882 55.56 4.44 52.03c-.882-1.618-.294 4.34-.367 4.854-.515 3.971.147 7.942-.221 11.914.074.955-1.03 2.573 0 3.015.515-.295.515-.81.736-1.25.367-1.104 1.103-1.986 1.838-2.942a.577.577 0 000-.81c-.147-.073 0-.514.147-.44 3.236 4.927 8.604 2.72 11.693-1.03 1.691-2.206.956-5.516 1.912-8.163.956-5.59-1.324-11.178-4.192-15.885-2.5-2.794-6.103-4.78-6.84-8.75zm2.574 8.53c-1.25.075-2.5-2.352-2.942-3.53-.147-.293-.515-.514-.661-.882-.22-.22-.516-1.397-.736-1.03-.368 1.325.441 2.722.294 3.898C6.5 38.352 6.354 36.66 5.986 35.19c-.368-.883-.736-1.765-.736-2.648 0-1.691-.073-3.456.589-5.074.441-.441.367.588.367.882 0 .221-.146 3.604.294 2.501-.146-.294.221-1.545.442-1.324 0 1.765.588 3.456 1.103 5.074.074.883.368 1.986.956 2.648.735.441 1.03 1.25 1.618 1.765.22.294.514.588.514.956-.146.588.81.44.589 1.103zM5.986 63.87c.368.441-.074.956.074 1.471.146.368-.368.588-.515.883-.148.073-.368.735-.515.367-.074-1.47-.147-2.942.294-4.412.515-.662.736.515.809.956-.073.22-.294.514-.147.735zm11.692-11.399c.589-1.617 1.177 1.765.589 2.207-.589.147-.662-1.03-.662-1.398-.073-.294 0-.588.073-.809zm.515 6.472c.368-1.618.81-2.133.956-.073.662.882 0 2.059-.514 2.941-.368.662-.294 1.544-.81 2.206-.587.736-.22-.662-.809-.294-1.029-1.176-.146-5.368.516-6.618.588.44.146 1.765.661 1.838zm-1.103-2.28c-.22.074-.44.074-.588 0-.588-1.25-1.103-2.794-.883-4.192.81-2.573 2.28 3.604 1.471 4.192zM33.415 20.482c-1.25-.589-2.574-.589-3.971-.662-.368 0-.368-.81-.736-.662-.367 1.544-6.25-.368-7.5 0-.516.441.44.662.735.882 1.323 1.324 1.544 3.53 2.059 5.222.44 1.985.073 3.97.147 5.956-.147 1.839.368 3.677 0 5.516.441 5 .22 10.148.294 15.149-.147 3.53.588 7.06-.368 10.516-.44 2.28-1.103 4.78-2.5 6.693-.515.514.442.735.809.514 2.574-1.103 5.22-1.765 8.016-1.912.588-.22 2.353.368 2.427-.367-.074-.294-.22-.515-.516-.736-1.397-.956-2.28-2.5-2.72-4.118-.956-4.192-.736-8.604-.588-12.87 6.986.368 11.03-6.839 10.81-13.09.882-5.736.074-13.825-6.398-16.031zm-5.589.22c.44 0 .22.588.074.81-.221-.074-.516-.883-.074-.81zm-3.677 1.25c-.589-.44-1.177-2.941.073-1.617.589.515 1.397-.074 2.133.294.22.073.515 0 .735-.221.662-.073.074 2.868.662 3.53.074-.147.148-.368.22-.22.295 2.206.81 4.486-.22 6.545-.368-1.03 0-2.28-.368-3.163-.367.442-.22 1.25-.514 1.692-.147-2.574-.515-5.222.074-7.87-.295-.44-.81.59-1.25.368-1.472-.073 1.323 3.751.22 5.59-.81-1.471-.589-3.53-1.765-4.928zm5.442 42.8c.147.295.515 1.104-.074.883-1.103-.809-1.47-2.5-2.133-3.75-.294-.074-.146 2.059-.294 2.5-.294-.147 0-.662-.294-.882-.661.294-1.03 2.868.074 1.838.147-.22.074-.662.441-.735.073-.074.147-.074.22 0 .074 0 .148.073.148.147 1.544 3.456-.735 1.691-3.383 2.794-.221.074-1.03.368-.736-.147.515-.588.515-1.691 1.177-2.059 1.03-2.206.882-4.927 1.177-7.28 0 .073.073.147.073.22.148-.147-.073-.441.22-.515.59 1.545.295 3.163.59 4.707.147-1.03-.148-2.206.147-3.236.735-.662.22-1.985.808-2.794.589.44.22 1.397.294 1.985.368.956.295 1.986.368 2.942.147 1.177.735 2.28 1.177 3.383zm-.588-17.649c-.442-4.633.588-9.119.514-13.678.368-.81-.073-1.765.074-2.648.22-.588.22-1.25.074-1.838-.074-.512.143-1.024-.29-1.464l.007.07c.055.253.062.46.062.659-.028-.218-.041-.44-.062-.66-.006-.027-.005-.048-.012-.076l.006.007a21.882 21.882 0 01.068-4.64 2.56 2.56 0 01-.295-1.618c.368-.662 1.765.294 2.354.441.294.22.808.368.808.736.589.956 1.692 1.691 1.913 2.941 2.574 6.251 1.324 13.237-.294 19.636.22 1.69-4.854 4.044-4.927 2.132zm7.721-3.162c-.588.956-1.324 1.838-2.28 2.5-.073.074-.146-.073-.073-.073.294-.81.441-1.692.882-2.427.736-1.177.515-2.868 1.03-3.971.515.735 0 2.132.809 2.647 0 .441-.147.883-.367 1.324zm.294-1.839s0-.073.074-.073c0 0 0 .147-.074.073zm.736-13.09c-.294 0-.956-3.456-1.324-2.28-.073.515.22.957-.22 1.472-.736-1.765-.662-4.045-2.427-5.369-.442-.368-1.177-.662-1.177-1.324.367-2.574 3.456 2.5 3.971 3.163.736 1.176 1.545 3.015 1.177 4.338zM57.02 18.202v.22l-.147.148c-.66.294.368 1.544.295 2.206 1.03 3.53 1.397 7.722 2.942 10.957.955-2.5.22-5.736.147-8.457-.295-3.824.146-7.648.367-11.472-1.544-1.397-1.324 1.986-2.353 2.647.074.442.735-.073.367.736-.588 1.25.295.22.662-.147.589-.368-.146 3.235-.073 3.677-.294.808-.367-1.618-.809-.883-.147 1.177-.368-.147-.735-.368-.442-.294-.81.368-.662.736z"/><path class="st3" d="M60.55 62.988c-.073-2.354-.147-4.78-.073-7.207 0-1.912.515-4.118-.147-5.957-1.618 1.47-1.544 4.412-2.059 6.545 0 1.177-1.765 6.03-.81 6.398-.146 2.28 1.472-.956 1.84-1.47 0-.074.147-.074.147 0 .074 1.102.147 2.28.22 3.456-.073.515-.735-.294-1.103-.294-.368-.074-.956-.442-1.25 0-.442.367-1.25-.074-1.765-.074-1.03-.22-2.06-.294-3.162-.368-1.765-.147-2.427.368-2.06-1.838-.44-5.442.074-10.884-.367-16.326.294-6.692-1.103-4.266 4.486-5.883.22-.148 1.03-.074 1.103.22 0 .295.147 1.618-.22 1.471-.148-.294-.295-.735-.589-.882a1.789 1.789 0 000 .882v.588c.22 1.84.809 3.825 1.177 5.516.22.441.367 0 .515-.22s.514-.221.44-.515c0-3.016-.367-6.03-.22-9.046-.073-1.544.368-3.309 0-4.78-.22-.073-.22.441-.44.22-.221-5.147-1.545 3.972-2.06 5.001.44-.073.367.442.22.662-.073.147-.294.074-.441.074-.809-.441-3.75.22-3.75-.515-.147-2.942.22-5.81.073-8.678.147-3.824-.294-7.721-.147-11.545.073-.295.22-.736.589-.736a6.632 6.632 0 002.353-.662c.515-.073 1.03-.367 1.544-.294.662 0 1.25-.515 1.912-.441.22 0 .367-.147.441-.368 0-.294.588-.588.442-.882-1.03.073-2.133.294-3.162.367-3.972.442-7.943 1.03-11.914 1.25-.294.295.22.442.294.663.074.294.294.44.515.588 1.03.735 1.765 1.912 2.5 2.942 0-.81-1.47-1.913-1.25-2.427.515.147 1.03-.515 1.47-.148.221.515.957-.073 1.177.368 0 .22.22.588-.073.588-.662-.146 0 .662.073.883.295.515.074 1.103.22 1.618.075.147.075.515-.072.662-.368-.589-.736-1.25-1.104-1.839-.22-.147-.147.368-.44.295.072.367.072.735.146 1.029.074 1.544 0 3.089-.22 4.56-.295 1.985-.147 3.97-.442 5.956 0 1.103.221 2.133-.147 3.163-.514.735-.146 1.617-.294 2.426.148 2.353-.074 4.707.22 6.987.074.588.442 4.338-.22 1.838-.368.22-.147.662-.147 1.03.22.662 0 1.617.515 2.132.294-1.47.368 1.471.147 1.692-.589-1.103-.294 2.72-.367 3.015 0 .073 0 .147.073.22h.147c.22.294.073.736.22 1.03.295.662-.588.735-.22 1.324.44.588-.662 5.294.22 4.78.074-.294.074-1.398.515-.956.147-1.177-.074-2.574.515-3.677.22.44.147 1.03.441 1.47 0-.22.074-.44.074-.588.294-.073.515-.441.735-.22.147 1.103.221 2.206.221 3.235 0 .368 0 .81.294.956.073 0 .22 0 .294.147-.073.368.368 1.25-.147 1.471-1.25 0-2.574.147-3.898.294-.661-.147-5.81 1.471-3.31 1.912 5.59-.588 11.326-1.69 16.915-.808.294.367-.514 0-.662.22 1.03 1.25 2.648 2.06 3.53 3.456 1.177 1.471-.368-5.295-.22-5.956zM54.889 39.16c.368-.294.442-.883.809-1.177.147.074 0 1.398-.22 1.471-.221 0-.736 0-.589-.294zm-10.001.294c0-.147-.073-.368.073-.441.294 0 .22.808-.073.441zm.147.956v-.22c.073.073.073.22.073.367 0-.073 0-.073-.073-.147zm.073 8.384c-.073-.074-.147-.589 0-.368 0 .074.074.074.074.147 0 .22-.074.294-.074.22zm.295 5.735c-.074 0-.148.074-.148.074-.808-1.25.295-2.059.148-.074zm1.47-11.986c-.073 0-.073-.074-.073-.074h.073v.074zm1.692 18.311c-.294-.515-.22-1.324-.294-1.912 0-.22-.074-.515.147-.662.147.736.515 1.912.147 2.574zm.44-36.035c-.072.883-.44 3.31-.882 1.03-.367-.368.074-.882-.146-1.324-.074-.661 0-1.176-.22-1.765-.222-1.397.293-2.941-.442-4.191.073-.074.073-.147.146-.147.368-.074.368-.368.442-.662.368.073.22 1.618.368 2.059.367-1.103.294-1.397.44 0 .295 1.618.369 3.31.295 5zM84.67 67.106c-.808-.441-1.102-1.324-1.544-2.132-2.721-6.914-2.133-14.414-3.677-21.474-1.397-9.781-3.31-19.415-2.72-29.27-1.84 1.325-3.237 3.384-5.002 5.001-.588.589-1.617.589-2.205 1.177.146.22.514.147.735.147 1.176.074 1.618 1.25 1.985 2.206-2.647 14.12-5.589 28.166-7.206 42.507-1.104 1.323-1.913 2.868-3.678 3.309.368.367.956.441 1.471.367.956-.44 9.855-1.323 4.928-1.617-4.119-2.28 1.617-20.739 2.132-25.372.882-4.118 1.398-8.457 2.427-12.428.736 2.133.882 4.706 1.397 6.986.736 4.56 1.47 9.12 1.912 13.753 0 .22-.073.367-.368.367-1.029.073-6.692-.147-6.397 1.177.22.515 1.25.22 1.765.367 1.69.074 3.53-.22 5.147-.073 1.177 4.633.662 9.56 2.133 14.12.956-.515.074-1.692.514-2.427.22-.148.295-.442.22-.662-.514-1.324-1.764-8.31.663-3.971 2.06.22 2.28 4.412 1.544 5.883-.22-.22-.441-.441-.735-.588-.147.073-.294.147-.294.294.441.073 1.03 3.015 1.176 1.03 0-.074-.073-.148 0-.221v.22c.368.442.295 1.177.81 1.471.073.147-.221.074-.295.147-1.691-.147-3.456 0-5.074.22-2.5.442-3.015 1.545 0 1.104 2.868-.662 6.472.294 9.119-.588a1.392 1.392 0 00-.882-1.03zm-9.486-48.83c.22.22-.22.514-.22.22 0-.073.073-.22.22-.22zm-1.839 10.516c-.735-1.692-1.103-3.677-.882-5.442 1.03-.662 2.28 6.104.882 5.442zm2.353-1.103c0 .147-.073.294-.073.367-1.544-1.912-1.985-5.368-1.47-7.868-.368-.589-.368-.589.367-.81.81-.44.515.221.588.81.588.514 1.544 8.162.588 7.5z"/><path class="st3" d="M106.217 67.18c.294.294.294.661.441.882a4.264 4.264 0 002.206 1.324c-4.118-3.015-5.074-8.163-6.619-12.723-1.25-4.118-2.72-8.162-3.97-12.207l-.148.294c-.073-.147-.147-.294-.147-.441l.294.147c-.073-.515-.073-.515-.44-.736-.148-1.47-.369-2.941-1.03-4.265 1.323-4.192 3.676-8.237 5.588-12.208 1.618-2.647 3.383-5.442 5.516-7.722.809-1.176-1.765.074-2.206.074-1.47.441-2.942.883-4.412 1.03-.295 0-.442.147-.222.367 2.207 2.06.736 4.78-.514 6.987-1.324 2.5-2.5 5.148-3.824 7.721-1.25 1.692-4.339 12.208-3.603 4.413.514-6.692-.956-14.12 1.617-20.518.148-.147-.073-.22-.22-.22-1.47.588-3.236.735-4.854 1.103-1.103.514-3.456-.295-3.75 1.25 2.794 2.647 2.794 6.618 2.5 10.148-.22 4.486-.147 8.972-.22 13.458.073 4.413.44 8.825.367 13.237.22 3.971-.368 8.237-3.236 11.178-.368.515.809.368 1.103.221 2.721-.515 5.59-1.397 8.237-.662 1.397.515.441-1.176.073-1.691-.662-1.177-1.176-2.5-1.544-3.824-.368-2.06-.441-4.118-.294-6.177.147-.883-.22-16.768 1.397-11.105 1.25 4.633 2.574 9.192 4.265 13.605-.073 3.015 3.016 7.721-.588 9.633-.809 1.25 7.354-.735 8.678-.294.073-.147-.074-.294-.221-.294-.735-.294-1.25-.882-1.839-1.47-.146-.295-.44.146-.588-.148-.588-1.03-1.618-2.868-1.397-4.044h.074c1.47.882 2.427 2.426 3.53 3.676zm-3.089-45.89c.589-.073 1.177-.22.589.515-.295.295-.222.883-.368 1.03-.442-.368-1.03-.883-1.104-1.47.221-.148.588-.075.883-.075zM91.95 68.356c-1.618-.147-3.31.368-4.78.294.588-.735.882-1.912 1.691-2.426 0-.074.074-.148.074 0 .588-1.03 0-2.354.367-3.457l-.073.074.073-.074c.368.074.074-.294.147-.515v.147c.295.074.148.442.441.515.148.22.148.662.516.589.073-.074.146-.074.22 0 0 0 .074.073.074.146.735.957.955 2.133.514 3.163-.147.367-.367-.147-.514.073-.074.074-.221 0-.294.074-.22.22 0 .22.22.22.515 1.25.588 0 .883-.44.294.146.294.955.514 1.25.074.147.148.367-.073.367zm1.544-1.691c.074.294.147.662-.074.809-.146.147-.146.294-.146.441.808.588-.074.809 0 0-.147-.074-.22-.294-.368-.368-.81-2.133-1.692-4.265-1.618-6.545.074-.294.074.294.294.147.073 0 .147 0 .147.074.588 1.765.81 3.75 1.765 5.442zm-.735-44.124c-.22-3.162-1.545.662-.883 1.618v-.074.074c.147.809 0 1.544.147 2.353.368-.956.22-2.133.442-3.162.367 1.912.073 4.412.073 6.545-.294 1.838-1.25 3.088-1.03.22-1.47-1.103-.367-4.338-.441-6.03-.809-.809-.661 1.692-.882 2.133-.736.294-.662-1.839-.883-2.28-.073-.147-.147-.22-.293-.074-.368.589-.884-1.03-1.25-1.323-.075-.294-.663-.736-.442-.956.735 0 1.397-.147 2.059-.074.147.074.22.294.294.294.662-.955 2.206-.661 3.162-1.323.662-.22 1.324-.515.736.514-.368.442-.294 1.398-.81 1.545zM94.67 43.5c.294 0 .22.662.367.882-.22 1.103-.882-.588-.367-.882zm9.78 24.636c.147-.148.515.294.515.44-.22.295-.588-.146-.514-.44zm-2.794-.662c-.073.514-.589.882-.809 1.324-.147.22-.44-.368-.294-.515.22-.221-.22-.295-.074-.442.442-.22.295-.367.295-.735.22-.294.293-.662.22-1.03l.295-.147c-.222-1.397-.736-2.868-.81-4.265.81-.956 2.353 4.56 1.692 5.295 0 .368-.515.147-.515.515zm1.03-.515c.368.294.662.956.956 1.324.22.367-.368.22-.589.22v.074c-.294-.074-.882.073-.809-.368.147-.368.074-.956.442-1.25z"/><path class="st0" d="M31.936 26.8c-.181-.964-.083-3.563-.017-4.89-.143-.085-.297-.163-.416-.252-.589-.147-1.986-1.103-2.354-.44a2.56 2.56 0 00.295 1.617 21.882 21.882 0 00-.068 4.64c.432.44.215.952.289 1.464.146.588.146 1.25-.074 1.838-.147.883.294 1.839-.074 2.648.074 4.56-.956 9.045-.514 13.678.037.956 1.323.846 2.573.285 0 0 .548-9.854.72-12.987.171-3.132-.112-6.284-.36-7.601z"/></g><g><path class="st1" d="M189.388 13.79v-.074h-.074z"/><path class="st1" d="M189.314 13.569s0 .147.074.147c0-.074.073-.22-.074-.147z"/><path class="st0" d="M191.006 10.7h2.744l-.338.875-1.424 1.353-2.059-.352-.408.352z"/><path class="st0" d="M216.4 41.293c-2.5-2.794-6.103-4.78-6.839-8.75-1.47-3.237-1.985-7.134-.22-10.37.527-1.103 1.151-2.545 2.152-3.214 1.28.498 2.22 1.455 2.899 2.626.146.073.514.073.514.294l-.037.2-.012-.053c-.338-.213-.507.019-.567.5a27.465 27.465 0 01-.12-.5c-1.397-.882.074 5.81.368 6.545.442 1.25 1.765 4.78 3.016 5h2.744c.22-.66-.073-1.323-.22-1.911-.589-3.089-.956-6.251-.883-9.413.294-1.618-.368-3.236-.294-4.854 0-.095-.064-.124-.147-.116l.003-.006h-2.698l-.002.003a.363.363 0 00-.195.046c-.347.289-.625.517-.866.703a26.172 26.172 0 00-.728-.336 7.219 7.219 0 00-2.096-.197 6.682 6.682 0 00-.687 0 6.682 6.682 0 00-.686 0 6.682 6.682 0 00-.686 0c-4.061-.205-6.723 3.223-7.12 7.257-.418 1.163-.66 2.352-.803 3.553.007-.694.005-1.388.017-2.082.221-1.618.074-3.383.662-4.928.294-.882 1.03-2.059.736-2.941-.122-.02-.36.162-.624.398a1.385 1.385 0 00-.062-.398c-.007-.001-.016.003-.023.003.582-.613.629-.857.355-.868l.003-.004h-.724l-.662-.001H201.178l-.012-.001h-.632l-.01.009c-.846-.071-5.226 2.42-6.062 2.995.073.22.073.368.147.588 1.691-.147 3.456 1.47 3.162 3.162-.073 4.192-.147 8.384-.073 12.576.294 5.074.147 10.148.294 15.296-.147.662.294 5-.515 4.412-.588 2.721-1.397 5.222-3.603 7.06-.32.256-.613.721-.938 1.14-1.644-1.405-2.629-3.46-2.568-5.626-.22-.588-.22-1.47-.22-2.133-.296-1.03-.148-1.985-.075-3.088 0-4.78-.073-9.707-.22-14.561 0-6.398.294-12.87 1.397-19.194.662-2.868 1.912-5.59 2.794-8.383.074-.074.074-.221 0-.295-.073 0-.146 0-.22.074-.207.207-.414.446-.62.687.05-.155.105-.31.154-.466.074-.074.074-.221 0-.295h-.002c.16-.228.305-.467.394-.735-.357.306-.711.643-1.065.995.05-.078.052-.195-.013-.26h-.002c.16-.228.305-.467.394-.735-.357.306-.712.643-1.065.995.05-.078.052-.195-.013-.26h-.002c.159-.228.304-.467.394-.735-.357.306-.712.643-1.065.995.05-.078.052-.195-.013-.26h-.002c.159-.228.304-.467.394-.735a23.783 23.783 0 00-1.744 1.693c.295-.543.839-1.037 1.058-1.693-2.574 2.206-5.001 5.81-8.09 7.869-1.618 1.397-3.971 1.47-5.883 2.353-.073 0-.073.073 0 .22.073.147 0 .221-.073.368-.074.294.882.147 1.103.368 3.089.882 5.81 3.53 4.853 6.913a46.519 46.519 0 00-.22 6.398c-.221 4.192.22 8.31.44 12.501 0 4.78-.514 9.855.957 14.488.661 1.176.441 2.647 1.103 3.75 1.119 1.679 3.394 4.5 5.715 4.227.227.03.456.027.686 0 .228.03.457.027.686 0 .228.03.457.027.686 0 .649.084 1.31-.038 1.958-.476 0-.368-.809-.294-1.03-.588.589-1.104 2.648-.074 3.53-1.104 1.324-.661 1.545-2.206 2.427-3.162.832-.948 1.359-2.026 1.696-3.177.044 2.383.192 4.766-.028 7.149.073.955-1.03 2.573 0 3.015h2.744c.515-.295.515-.81.736-1.25.265-.796.724-1.476 1.233-2.153.988.63 2.06.865 3.146.796.228.014.457.015.686 0 .228.014.457.015.686 0 .228.014.457.015.687 0 2.592.153 5.345-1.564 7.24-3.865 1.691-2.206.956-5.516 1.912-8.163.956-5.59-1.324-11.178-4.192-15.885zm-3.332 23.68c-.566 1.075-1.09 2.278-2.139 2.743-1.269-.53-2.26-1.84-2.839-2.89-.44-.809 0-1.691-.44-2.5-1.692-3.162-2.354-6.766-2.795-10.296-.106-.193-.19-.278-.257-.277l-2.48-.035c.005-.117.008-.235.016-.35.094-5.379.042-10.758.027-16.137.408 3.474 1.72 6.801 3.7 9.74 1.691 2.647 4.633 4.265 6.25 6.912.22 4.34 2.942 8.899.957 13.09z"/><path class="st1" d="M184.681 60.193c0 .22.22.883.515.589-.147-1.398-.147-3.016-.515-4.413-.662.956-.22 2.648 0 3.824zM213.288 52.471c-.22 1.398.294 2.942.882 4.192.148.074.368.074.589 0 .81-.588-.662-6.765-1.471-4.192zm1.324 3.824v.074c0 .147-.074 0 0-.074zM184.608 19.085c-.809.294-1.324 1.25-2.207 1.323-.514-.147-.514.074-.661.442-.736.661 1.323 1.764 1.544 2.5.441.441 1.47 3.089 1.397 1.324.368-1.398-.22-2.501-.882-3.604.809-1.177.735 1.544 1.25 1.839 0-.074.073-.074.073-.148.368-1.176-.294-2.353-.44-3.456 0-.074.073-.22-.074-.22zM187.403 16.731c.073-.735.955-.956 1.176-1.618 0-.294.441-.44.22-.735-2.206 2.28-3.015 3.603-3.161 6.912 0 .957-.516 2.354.146 3.09.368.44.074 1.25.22 1.838.957 6.324 1.178-8.53 1.399-9.487zm-.81 1.839v.073c-.074-.073 0-.147 0-.073zM202.992 62.179c-.44 1.47-.367 2.941-.294 4.412.148.368.368-.294.516-.367.146-.295.66-.515.514-.883-.147-.515.294-1.03-.074-1.47-.147-.222.074-.516.148-.736-.074-.441-.295-1.618-.81-.956zM215.935 54.678c.589-.442 0-3.824-.588-2.207-.074.221-.147.515-.074.81 0 .367.074 1.544.662 1.397zM208.802 39.97c0-.368-.294-.662-.515-.956-.588-.515-.882-1.324-1.617-1.765-.589-.662-.883-1.765-.956-2.648-.515-1.618-1.103-3.31-1.103-5.074-.22-.22-.589 1.03-.442 1.324-.44 1.103-.294-2.28-.294-2.5 0-.295.074-1.324-.368-.883-.661 1.618-.588 3.383-.588 5.074 0 .883.368 1.765.735 2.648.368 1.47.515 3.162 1.692 4.338.147-1.176-.662-2.573-.294-3.897.22-.368.515.809.735 1.03.147.367.515.588.662.882.441 1.177 1.692 3.604 2.941 3.53.221-.662-.735-.515-.588-1.103zm-5.368-6.251v-.074s.073 0 .073.074h-.073zM186.226 64.091c.147 1.03.809 2.28 1.691 2.868.22-.662-.588-1.177-.81-1.765-.146-.22-.588-1.47-.881-1.103zM214.685 63.723c.588-.368.221 1.03.81.294.514-.662.44-1.544.808-2.206.515-.882 1.177-2.059.515-2.941-.147-2.06-.588-1.545-.956.073-.515-.073-.073-1.397-.662-1.838-.662 1.25-1.544 5.442-.515 6.618zm.515-5.663c-.073 0-.147.074-.147-.073.074 0 .22-.073.147.073zm-.367.736c.367-.515.44.735.514.956-.367-.147-.588-.588-.514-.956zM187.844 63.209c-2.28-3.751-1.986-.957-.589 1.176.736 1.103 2.133 2.721 3.383 2.721-.073-1.618-2.059-2.5-2.794-3.897zM194.315 65.488c-.588.368-2.427 1.986-.736 1.765l-.073.294c.441 0 .735-.514 1.03-.809.294-.294.441-1.544-.22-1.25zM197.771 20.04c.221.442 0 .368-.367.368-.736 0 .22.515.441.736.368.073.147-.81.294-1.03.074-.22-.368-.22-.368-.074z"/><path class="st2" d="M186.593 18.57c0-.074-.074 0 0 .073v-.073zM214.612 56.37v-.075c-.074.074 0 .221 0 .074zM203.434 33.645v.074h.073c0-.074-.073-.074-.073-.074zM215.2 58.06c.073-.146-.073-.073-.147-.073 0 .147.074.073.147.073z"/><path class="st3" d="M199.316 19.158c4.56-4.118-3.677.515-4.854 1.324.074.22.074.368.147.588 1.691-.147 3.456 1.47 3.162 3.162-.073 4.192-.146 8.384-.073 12.576.294 5.074.147 10.148.294 15.296-.147.662.294 5-.515 4.412-.588 2.721-1.397 5.222-3.603 7.06-.736.588-1.324 2.28-2.5 1.986-2.354-1.324-3.825-3.824-3.75-6.472-.221-.588-.221-1.47-.221-2.133-.295-1.03-.148-1.985-.074-3.088 0-4.78-.074-9.707-.221-14.561 0-6.398.295-12.87 1.398-19.194.662-2.868 1.911-5.59 2.794-8.383.073-.074.073-.221 0-.295-.074 0-.147 0-.22.074-.442.441-.883 1.03-1.324 1.47.073-.809.955-1.397 1.25-2.28-2.574 2.207-5.001 5.81-8.09 7.87-1.618 1.397-3.971 1.47-5.883 2.353-.073 0-.073.073 0 .22.073.147 0 .221-.073.368-.074.294.882.147 1.103.368 3.089.882 5.81 3.53 4.854 6.913a46.519 46.519 0 00-.22 6.398c-.222 4.192.22 8.31.44 12.501 0 4.78-.515 9.855.956 14.488.662 1.176.441 2.647 1.103 3.75 1.323 1.986 4.265 5.59 6.986 3.751 0-.368-.809-.294-1.029-.588.588-1.104 2.647-.074 3.53-1.104 1.323-.661 1.544-2.206 2.426-3.162 3.163-3.603 1.986-9.045 2.28-13.458.147-8.383-.073-16.767.074-25.15.22-1.618.073-3.383.662-4.928.294-.882 1.03-2.059.735-2.941-.441-.074-2.427 2.5-1.544.809zm-10.002-5.59c.147-.072.074.074.074.148v.074l-.074-.074h.074c-.074 0-.074-.147-.074-.147zm-4.633 46.625c-.22-1.176-.662-2.868 0-3.824.368 1.397.368 3.015.515 4.413-.294.294-.515-.368-.515-.589zm.441-37.432c0 .074-.073.074-.073.148-.515-.294-.441-3.016-1.25-1.839.662 1.103 1.25 2.206.882 3.604.074 1.765-.956-.883-1.397-1.324-.22-.736-2.28-1.839-1.544-2.5.147-.368.147-.589.661-.442.883-.073 1.398-1.03 2.207-1.323.147 0 .073.146.073.22.147 1.103.81 2.28.441 3.456zm.662 1.618c-.662-.735-.146-2.132-.146-3.089.146-3.309.955-4.632 3.162-6.912.22.294-.22.44-.22.735-.222.662-1.104.883-1.177 1.618-.221.956-.442 15.811-1.398 9.487-.147-.589.147-1.398-.22-1.839zm2.133 42.58c-.882-.588-1.544-1.839-1.691-2.868.293-.368.735.882.882 1.103.22.588 1.03 1.103.81 1.765zm-.662-2.574c-1.397-2.133-1.691-4.927.589-1.176.735 1.397 2.72 2.28 2.794 3.897-1.25 0-2.647-1.618-3.383-2.72zm7.28 2.353c-.294.295-.588.81-1.029.81l.073-.295c-1.69.22.148-1.397.736-1.765.662-.294.515.956.22 1.25zm3.604-46.624c-.147.22.074 1.103-.294 1.03-.22-.221-1.177-.736-.441-.736.367 0 .588.074.367-.368 0-.147.442-.147.368.074zM206.816 32.542c-1.47-3.236-1.985-7.133-.22-10.37.809-1.69 1.839-4.19 4.118-3.455 1.692.368 2.868 1.47 3.678 2.868.146.073.514.073.514.294-.294 1.544-.294 2.059-.736.147-1.397-.882.074 5.81.368 6.545.442 1.25 1.765 4.78 3.016 5 .22-.66-.074-1.323-.22-1.911-.59-3.089-.957-6.251-.884-9.413.295-1.618-.367-3.236-.293-4.854 0-.147-.148-.147-.295-.073-2.206 1.838-1.838 1.47-4.339.367-4.853-1.177-8.089 2.574-8.53 7.06-1.03 2.868-1.03 5.883-.956 8.898.147 4.045 1.544 7.942 3.823 11.326 1.692 2.647 4.634 4.265 6.251 6.912.22 4.34 2.942 8.899.957 13.09-.736 1.398-1.398 3.015-3.236 2.942-2.06.368-3.677-1.618-4.486-3.089-.441-.809 0-1.691-.441-2.5-1.691-3.162-2.353-6.766-2.795-10.296-.883-1.618-.294 4.34-.368 4.854-.515 3.971.147 7.942-.22 11.914.073.955-1.03 2.573 0 3.015.515-.295.515-.81.735-1.25.368-1.104 1.103-1.986 1.838-2.942a.576.576 0 000-.81c-.146-.073 0-.514.148-.44 3.236 4.927 8.604 2.72 11.692-1.03 1.692-2.206.957-5.516 1.913-8.163.955-5.59-1.324-11.178-4.192-15.885-2.5-2.794-6.104-4.78-6.84-8.75zm2.574 8.53c-1.25.075-2.5-2.352-2.941-3.53-.147-.293-.515-.514-.662-.882-.22-.22-.515-1.397-.735-1.03-.368 1.325.441 2.722.294 3.898-1.177-1.176-1.324-2.868-1.692-4.338-.367-.883-.735-1.765-.735-2.648 0-1.691-.073-3.456.588-5.074.442-.441.368.588.368.882 0 .221-.147 3.604.294 2.501-.147-.294.221-1.545.442-1.324 0 1.765.588 3.456 1.103 5.074.073.883.367 1.986.956 2.648.735.441 1.029 1.25 1.617 1.765.221.294.515.588.515.956-.147.588.81.44.588 1.103zm-5.736 22.798c.368.441-.073.956.074 1.471.147.368-.368.588-.514.883-.148.073-.368.735-.516.367-.073-1.47-.146-2.942.294-4.412.515-.662.736.515.81.956-.074.22-.295.514-.148.735zm11.693-11.399c.588-1.617 1.177 1.765.588 2.207-.588.147-.662-1.03-.662-1.398-.073-.294 0-.588.074-.809zm.515 6.472c.368-1.618.81-2.133.956-.073.662.882 0 2.059-.515 2.941-.368.662-.294 1.544-.808 2.206-.589.736-.222-.662-.81-.294-1.03-1.176-.147-5.368.515-6.618.589.44.147 1.765.662 1.838zm-1.103-2.28c-.22.074-.441.074-.589 0-.588-1.25-1.102-2.794-.882-4.192.809-2.573 2.28 3.604 1.47 4.192z"/><path class="st2" d="M215.347 59.752c-.074-.22-.147-1.47-.514-.956-.074.368.147.809.514.956z"/><path class="st0" d="M222.307 20.131L223.808 0l-9.588 2.077 5.168 1.731-10.652 9.484z"/><path class="st0" d="M222.307 20.131l10.08 11.196L195.19 12.58l13.546.711z"/><path class="st3" d="M222.307 20.131l-13.57-6.839 2.053-1.829 11.723 5.908z"/></g></svg>